<svg width="23" height="15" viewBox="0 0 23 15" fill="none" xmlns="http://www.w3.org/2000/svg">
<path d="M3.09739 13.03C2.09295 12.3541 1.35886 11.3459 1.02413 10.1824C0.689399 9.01889 0.775445 7.77466 1.26715 6.66833C1.75885 5.562 2.62474 4.66437 3.71266 4.13318C4.80058 3.60198 6.04091 3.47122 7.21568 3.76387C7.86752 2.70451 8.82397 1.86659 9.95987 1.35978C11.0958 0.852959 12.3582 0.700851 13.582 0.923355C14.8058 1.14586 15.9339 1.73261 16.8187 2.60683C17.7035 3.48105 18.3038 4.60201 18.541 5.82302C19.6332 5.95955 20.6265 6.52437 21.3023 7.39325C21.9781 8.26212 22.281 9.36386 22.1445 10.4561C22.008 11.5483 21.4431 12.5416 20.5743 13.2174C19.7054 13.8932 18.6037 14.1961 17.5114 14.0596H4.12696C3.70663 13.8034 3.35363 13.4504 3.09739 13.03Z" stroke="#1A4DBC" stroke-width="1.6" stroke-linecap="round" stroke-linejoin="round"/>
</svg>
