<svg width="19" height="30" viewBox="0 0 19 30" fill="none" xmlns="http://www.w3.org/2000/svg">
<path d="M19 11.1549V9.43416C19 7.65794 18.498 5.92398 17.5484 4.41976C16.5987 2.91554 15.2465 1.71261 13.6381 0.941043C11.0319 -0.309114 8.0402 -0.31386 5.4298 0.927977L5.38957 0.947078C3.77372 1.71583 2.41482 2.91888 1.4598 4.42614C0.504784 5.93341 0 7.67183 0 9.45343V11.1549C0 14.1503 1.42063 16.9465 3.82367 18.7272V20.3195C2.46908 20.555 1.43589 21.7326 1.43589 23.1463C1.43589 24.3039 2.12865 25.3028 3.12313 25.7564C2.89863 26.1646 2.7708 26.6324 2.7708 27.1296C2.7708 28.7123 4.06537 30 5.6566 30H13.025C14.6162 30 15.9108 28.7123 15.9108 27.1296C15.9108 26.6325 15.783 26.1646 15.5585 25.7564C16.5529 25.3028 17.2457 24.3038 17.2457 23.1463C17.2457 21.8456 16.3712 20.7449 15.1765 20.3937V18.7272C17.5794 16.9465 19 14.1503 19 11.1549ZM1.76695 11.1549V9.45343C1.76695 8.00388 2.17766 6.58949 2.95466 5.36318C3.73165 4.13681 4.8373 3.15806 6.15219 2.53245L6.19242 2.51335C8.31606 1.50307 10.7501 1.507 12.8705 2.52407C14.1792 3.15185 15.2793 4.13054 16.052 5.35439C16.8247 6.57824 17.233 7.989 17.233 9.43416V11.1549C17.233 13.7223 15.95 16.1102 13.8011 17.5426C13.5563 17.7058 13.4094 17.9795 13.4094 18.2726V20.2759H10.3656V13.1906L12.952 9.55504C13.2338 9.15888 13.1394 8.6105 12.7411 8.33013C12.3428 8.04976 11.7915 8.14363 11.5096 8.53984L9.49552 11.3709L7.53123 8.5474C7.2536 8.14832 6.70328 8.04865 6.30199 8.3248C5.90077 8.60095 5.80057 9.14834 6.0782 9.54748L8.59859 13.1705V20.2759H5.5905V18.2726C5.5905 17.9795 5.44358 17.7058 5.19882 17.5426C3.04991 16.1102 1.76695 13.7223 1.76695 11.1549ZM13.0249 28.2425H5.65654C5.03959 28.2425 4.53769 27.7433 4.53769 27.1296C4.53769 26.516 5.03959 26.0167 5.65654 26.0167H13.0249C13.6419 26.0167 14.1438 26.516 14.1438 27.1296C14.1438 27.7433 13.6418 28.2425 13.0249 28.2425ZM14.3598 24.2592H4.32168C3.70473 24.2592 3.20284 23.7599 3.20284 23.1463C3.20284 22.5326 3.70473 22.0334 4.32168 22.0334H14.3598C14.9767 22.0334 15.4786 22.5327 15.4786 23.1463C15.4786 23.76 14.9767 24.2592 14.3598 24.2592Z" fill="black"/>
</svg>
