<svg width="30" height="30" viewBox="0 0 30 30" fill="none" xmlns="http://www.w3.org/2000/svg">
<path d="M14.7555 7.89753H21.4486V8.46369C21.4486 8.95184 21.8421 9.34759 22.3275 9.34759C22.8129 9.34759 23.2064 8.95184 23.2064 8.46369V7.89753H24.9028C25.3882 7.89753 25.7817 7.50178 25.7817 7.01364C25.7817 6.52549 25.3882 6.12974 24.9028 6.12974H23.2064V5.56352C23.2064 5.07538 22.8129 4.67963 22.3275 4.67963C21.8421 4.67963 21.4486 5.07538 21.4486 5.56352V6.12968H14.7555C14.2701 6.12968 13.8766 6.52543 13.8766 7.01358C13.8766 7.50172 14.2701 7.89753 14.7555 7.89753Z" fill="black"/>
<path d="M14.7555 23.7031H16.4518V24.4365C16.4518 24.9247 16.8453 25.3204 17.3307 25.3204C17.8161 25.3204 18.2096 24.9247 18.2096 24.4365V23.7031H24.9028C25.3882 23.7031 25.7817 23.3073 25.7817 22.8192C25.7817 22.331 25.3882 21.9353 24.9028 21.9353H18.2096V21.5364C18.2096 21.0482 17.8161 20.6525 17.3307 20.6525C16.8453 20.6525 16.4518 21.0482 16.4518 21.5364V21.9353H14.7555C14.2701 21.9353 13.8766 22.331 13.8766 22.8192C13.8766 23.3073 14.2701 23.7031 14.7555 23.7031Z" fill="black"/>
<path d="M29.1211 0H10.5372C10.0518 0 9.6583 0.395749 9.6583 0.883894V4.07876C9.01477 4.27504 8.39004 4.5266 7.79039 4.83154L6.59689 3.64152C6.25295 3.29857 5.69795 3.30011 5.35582 3.64488L1.77393 7.25535C1.60898 7.42164 1.51658 7.64715 1.51723 7.88215C1.51787 8.11703 1.6115 8.34207 1.77738 8.50742L2.87824 9.6048C2.53828 10.2311 2.2592 10.886 2.04357 11.5631H0.878906C0.393516 11.5631 0 11.9588 0 12.447V17.5531C0 18.0412 0.393516 18.437 0.878906 18.437H2.04363C2.25926 19.114 2.53834 19.7689 2.8783 20.3953L1.77744 21.4926C1.61156 21.658 1.51787 21.883 1.51729 22.1179C1.51664 22.3528 1.60898 22.5784 1.77398 22.7447L5.35588 26.3552C5.52762 26.5282 5.75273 26.6147 5.97809 26.6147C6.20174 26.6147 6.42557 26.5294 6.59695 26.3585L7.79045 25.1685C8.3901 25.4733 9.01482 25.725 9.65836 25.9212V29.1161C9.65836 29.6042 10.0519 30 10.5373 30H29.1211C29.6065 30 30 29.6042 30 29.1161V0.883894C30 0.395749 29.6065 0 29.1211 0ZM9.6583 20.2297C9.01664 19.7975 8.45742 19.2444 8.00771 18.592C7.2801 17.5362 6.89555 16.2942 6.89555 15.0001C6.89555 13.706 7.2801 12.464 8.00771 11.4082C8.45742 10.7557 9.01664 10.2027 9.6583 9.77044V20.2297ZM9.6583 7.74038C8.41922 8.33818 7.35721 9.24883 6.56303 10.4012C5.63057 11.7541 5.13773 13.3444 5.13773 15.0001C5.13773 16.6558 5.63057 18.2461 6.56303 19.599C7.35727 20.7514 8.41922 21.662 9.6583 22.2598V24.0589C9.11086 23.8586 8.58193 23.6096 8.07709 23.3144C7.73361 23.1135 7.29873 23.1694 7.01643 23.4508L5.98143 24.4829L3.64119 22.124L4.60037 21.1678C4.89293 20.8762 4.94484 20.4192 4.72518 20.0687C4.19355 19.2204 3.80074 18.301 3.5577 17.336C3.45885 16.9439 3.10793 16.6692 2.70568 16.6692H1.75781V13.3309H2.70568C3.10793 13.3309 3.45885 13.0563 3.5577 12.6641C3.80068 11.6992 4.19355 10.7797 4.72518 9.93143C4.94484 9.58094 4.89293 9.12402 4.60037 8.8324L3.64119 7.8762L5.98143 5.51726L7.01643 6.54936C7.29861 6.83073 7.73344 6.88671 8.07709 6.68577C8.58193 6.39055 9.11092 6.14165 9.6583 5.94124V7.74038ZM28.2422 28.2324H11.4161V1.76779H28.2422V28.2324Z" fill="black"/>
<path d="M14.7555 13.1661H16.4518V13.7322C16.4518 14.2203 16.8453 14.6161 17.3307 14.6161C17.8161 14.6161 18.2096 14.2203 18.2096 13.7322V13.1661H24.9028C25.3882 13.1661 25.7817 12.7703 25.7817 12.2822C25.7817 11.794 25.3882 11.3983 24.9028 11.3983H18.2096V10.8321C18.2096 10.344 17.8161 9.94822 17.3307 9.94822C16.8453 9.94822 16.4518 10.344 16.4518 10.8321V11.3983H14.7555C14.2701 11.3983 13.8766 11.794 13.8766 12.2822C13.8766 12.7703 14.2701 13.1661 14.7555 13.1661Z" fill="black"/>
<path d="M14.7555 18.4347H21.4486V19.0008C21.4486 19.4889 21.8421 19.8847 22.3275 19.8847C22.8129 19.8847 23.2064 19.4889 23.2064 19.0008V18.4347H24.9028C25.3882 18.4347 25.7817 18.0389 25.7817 17.5508C25.7817 17.0626 25.3882 16.6669 24.9028 16.6669H23.2064V16.1007C23.2064 15.6126 22.8129 15.2168 22.3275 15.2168C21.8421 15.2168 21.4486 15.6126 21.4486 16.1007V16.6669H14.7555C14.2701 16.6669 13.8766 17.0626 13.8766 17.5508C13.8766 18.0389 14.2701 18.4347 14.7555 18.4347Z" fill="black"/>
</svg>
