<svg width="21" height="30" viewBox="0 0 21 30" fill="none" xmlns="http://www.w3.org/2000/svg">
<path d="M20.1382 0H0.861847C0.385878 0 0 0.393516 0 0.878906V29.1211C0 29.6065 0.385878 30 0.861847 30H20.1382C20.6141 30 21 29.6065 21 29.1211V0.878906C21 0.393516 20.6141 0 20.1382 0ZM19.2763 28.2422H1.72369V1.75781H19.2763V28.2422Z" fill="black"/>
<path d="M10.71 14.3385H16.8441C17.32 14.3385 17.7059 13.945 17.7059 13.4596C17.7059 12.9742 17.32 12.5807 16.8441 12.5807H10.71C10.234 12.5807 9.84816 12.9742 9.84816 13.4596C9.84816 13.945 10.234 14.3385 10.71 14.3385Z" fill="black"/>
<path d="M6.26638 11.1033L5.1747 12.2166L4.76538 11.7992C4.42886 11.456 3.88314 11.456 3.54656 11.7992C3.20998 12.1424 3.20998 12.6989 3.54656 13.0421L4.56526 14.081C4.72689 14.2458 4.94608 14.3385 5.17465 14.3385C5.40327 14.3385 5.6224 14.2458 5.78409 14.081L7.48514 12.3462C7.82172 12.003 7.82172 11.4465 7.48514 11.1033C7.14862 10.7601 6.6029 10.76 6.26638 11.1033Z" fill="black"/>
<path d="M10.71 8.23969H16.8441C17.32 8.23969 17.7059 7.84617 17.7059 7.36078C17.7059 6.87539 17.32 6.48187 16.8441 6.48187H10.71C10.234 6.48187 9.84816 6.87539 9.84816 7.36078C9.84816 7.84617 10.234 8.23969 10.71 8.23969Z" fill="black"/>
<path d="M4.56526 7.98223C4.73355 8.15385 4.95413 8.23963 5.17465 8.23963C5.39516 8.23963 5.6158 8.15385 5.78409 7.98217L7.48514 6.24738C7.82172 5.90414 7.82172 5.34768 7.48514 5.00443C7.14862 4.66125 6.6029 4.66119 6.26632 5.00443L5.17459 6.11771L4.76527 5.70029C4.42869 5.35711 3.88302 5.35705 3.54644 5.70029C3.20992 6.04354 3.20992 6.6 3.54644 6.94324L4.56526 7.98223Z" fill="black"/>
<path d="M10.71 19.7957H16.8441C17.32 19.7957 17.7059 19.4022 17.7059 18.9168C17.7059 18.4314 17.32 18.0379 16.8441 18.0379H10.71C10.234 18.0379 9.84816 18.4314 9.84816 18.9168C9.84816 19.4022 10.234 19.7957 10.71 19.7957Z" fill="black"/>
<path d="M6.26638 16.5605L5.1747 17.6738L4.76538 17.2564C4.42886 16.9131 3.88314 16.9131 3.54656 17.2564C3.20998 17.5996 3.20998 18.1561 3.54656 18.4993L4.56526 19.5382C4.72689 19.703 4.94608 19.7957 5.17465 19.7957C5.40327 19.7957 5.6224 19.703 5.78409 19.5382L7.48514 17.8034C7.82172 17.4602 7.82172 16.9037 7.48514 16.5605C7.14862 16.2173 6.6029 16.2173 6.26638 16.5605Z" fill="black"/>
<path d="M10.71 25.253H16.8441C17.32 25.253 17.7059 24.8595 17.7059 24.3741C17.7059 23.8887 17.32 23.4952 16.8441 23.4952H10.71C10.234 23.4952 9.84816 23.8887 9.84816 24.3741C9.84816 24.8595 10.234 25.253 10.71 25.253Z" fill="black"/>
<path d="M6.26638 22.0178L5.1747 23.1311L4.76538 22.7136C4.42886 22.3704 3.88314 22.3704 3.54656 22.7136C3.20998 23.0569 3.20998 23.6133 3.54656 23.9566L4.56526 24.9954C4.72689 25.1603 4.94608 25.2529 5.17465 25.2529C5.40327 25.2529 5.6224 25.1603 5.78409 24.9954L7.48514 23.2607C7.82172 22.9174 7.82172 22.361 7.48514 22.0177C7.14862 21.6745 6.6029 21.6745 6.26638 22.0178Z" fill="black"/>
</svg>
