<svg width="30" height="30" viewBox="0 0 30 30" fill="none" xmlns="http://www.w3.org/2000/svg">
<path d="M28.7248 25.8691L29.9331 22.9536C30.0454 22.6823 30.015 22.373 29.8519 22.1289C29.6888 21.8847 29.4147 21.7381 29.1211 21.7381H24.1113V20.1561C24.1113 19.6707 23.7178 19.2771 23.2324 19.2771H21.1227C21.2867 19.1001 21.4482 18.9204 21.6047 18.7356C22.9394 17.1598 23.9995 15.3074 24.7553 13.2301C26.0366 9.70848 26.0014 6.76982 25.9993 6.64642C25.9922 6.23638 25.7025 5.8857 25.3011 5.80144C22.0885 5.12679 19.6498 3.67928 18.1696 2.58376C16.5531 1.38733 15.6918 0.335919 15.6843 0.326719C15.5178 0.120176 15.2664 0.000527345 15.0011 0H14.9994C14.7347 0 14.4836 0.119942 14.3166 0.325489C14.3081 0.335977 13.4468 1.38733 11.8303 2.58376C10.3501 3.67928 7.91136 5.12679 4.69879 5.80144C4.29742 5.88575 4.00773 6.23638 4.00064 6.64642C3.99848 6.76982 3.96326 9.70842 5.24459 13.2301C6.00039 15.3074 7.0604 17.1598 8.39516 18.7356C8.55167 18.9204 8.71321 19.1001 8.87721 19.2771H6.76761C6.28222 19.2771 5.88871 19.6707 5.88871 20.1561V21.7381H0.878954C0.5854 21.7381 0.311241 21.8847 0.148116 22.1289C-0.0150086 22.373 -0.0454186 22.6824 0.0669639 22.9536L1.27522 25.8691L0.0670225 28.7846C-0.04536 29.0558 -0.0148914 29.3652 0.148175 29.6093C0.311241 29.8534 0.5854 30 0.878954 30H6.73831C7.2237 30 7.61722 29.6065 7.61722 29.1211V26.3671H22.3828V29.1211C22.3828 29.6065 22.7763 30 23.2617 30H29.1211C29.4146 30 29.6888 29.8534 29.8519 29.6093C30.015 29.3652 30.0454 29.0558 29.9331 28.7846L28.7248 25.8691ZM10.9288 18.8472L11.52 16.6382C11.7936 15.6144 12.725 14.8994 13.7849 14.8994H16.2151C17.275 14.8994 18.2064 15.6144 18.4802 16.6385L19.0713 18.8473C17.893 19.943 16.5301 20.8451 15.0001 21.5396C13.47 20.8451 12.1071 19.9429 10.9288 18.8472ZM15.0056 13.1416H14.9944C14.0383 13.1385 13.2615 12.3599 13.2615 11.4031C13.2615 10.4445 14.0414 9.66453 15 9.66453C15.9586 9.66453 16.7385 10.4445 16.7385 11.4031C16.7385 12.3598 15.9617 13.1384 15.0056 13.1416ZM6.91767 12.6866C6.08201 10.4135 5.84816 8.37207 5.78312 7.35576C10.5775 6.16126 13.6997 3.48757 15 2.17694C16.3003 3.48757 19.4224 6.16126 24.2169 7.35576C24.1518 8.37254 23.918 10.4137 23.0823 12.6866C22.4424 14.4274 21.5693 15.9876 20.4851 17.3307L20.1782 16.1842C19.8449 14.9375 18.9541 13.953 17.8182 13.4692C18.244 12.8899 18.4963 12.1755 18.4963 11.4031C18.4963 9.4751 16.9279 7.9066 15 7.9066C13.0722 7.9066 11.5037 9.4751 11.5037 11.4031C11.5037 12.1755 11.7559 12.8899 12.1817 13.4692C11.0459 13.953 10.155 14.9374 9.8218 16.1839L9.51489 17.3307C8.43073 15.9876 7.55763 14.4274 6.91767 12.6866ZM5.85941 28.2421H2.19456L3.03854 26.2055C3.12778 25.9901 3.12778 25.748 3.03854 25.5325L2.19456 23.4959H5.85941V28.2421ZM22.3535 24.6092H7.64651V21.035H10.7863C11.947 21.9435 13.2398 22.7043 14.655 23.3082C14.7652 23.3552 14.8826 23.3788 15 23.3788C15.1174 23.3788 15.2348 23.3553 15.345 23.3082C16.7602 22.7042 18.053 21.9435 19.2137 21.035H22.3535V24.6092ZM26.9614 26.2055L27.8054 28.2421H24.1406V23.4959H27.8055L26.9615 25.5325C26.8722 25.748 26.8722 25.9901 26.9614 26.2055Z" fill="black"/>
</svg>
