<svg width="30" height="30" viewBox="0 0 30 30" fill="none" xmlns="http://www.w3.org/2000/svg">
<path d="M25.504 18.7076C22.6826 15.9408 18.9521 14.4171 15 14.4171C11.0478 14.4171 7.31743 15.9408 4.49591 18.7076C1.67849 21.4705 0.0818663 25.1622 0.000186639 29.1029C-0.00467664 29.3391 0.0856749 29.5673 0.251026 29.7361C0.416319 29.9049 0.642667 30 0.878916 30H29.1211C29.3573 30 29.5837 29.9049 29.749 29.7361C29.9143 29.5673 30.0047 29.3391 29.9998 29.1029C29.9181 25.1622 28.3215 21.4704 25.504 18.7076ZM17.4855 28.2422H12.5145C12.8773 27.2192 13.8542 26.4844 15 26.4844C16.1458 26.4844 17.1227 27.2192 17.4855 28.2422ZM19.3061 28.2422C19.1287 27.372 18.6932 26.5949 18.0836 25.9938L20.3449 22.5188C20.6096 22.1119 20.4944 21.5674 20.0876 21.3027C19.6808 21.0379 19.1363 21.1531 18.8715 21.56L16.6111 25.0338C16.1118 24.8363 15.5687 24.7266 15 24.7266C12.8778 24.7266 11.1022 26.2388 10.6939 28.2422H1.80616C1.90653 27.0986 2.15321 25.9852 2.53536 24.9238L3.68503 25.3986C3.79477 25.4439 3.90839 25.4654 4.02024 25.4654C4.36548 25.4654 4.69296 25.2607 4.83294 24.9219C5.01827 24.4732 4.80481 23.9593 4.35616 23.7739L3.24065 23.3132C3.75874 22.3179 4.40637 21.3858 5.17424 20.5382L5.9788 21.3428C6.32204 21.686 6.8785 21.686 7.22174 21.3428C7.56499 20.9996 7.56499 20.4431 7.22174 20.0998L6.43653 19.3146C7.29909 18.5817 8.24204 17.9697 9.2434 17.4858L9.65285 18.4772C9.83813 18.9304 10.3632 19.1379 10.8007 18.954C11.2494 18.7687 11.4628 18.2548 11.2775 17.8061L10.8735 16.8282C11.9166 16.4873 13.006 16.2771 14.121 16.2042V17.242C14.121 17.7274 14.5146 18.1209 14.9999 18.1209C15.4853 18.1209 15.8788 17.7274 15.8788 17.242V16.2042C16.9939 16.277 18.0833 16.4873 19.1263 16.8281L18.7223 17.8061C18.5371 18.2547 18.7505 18.7686 19.1992 18.954C19.6366 19.1379 20.1618 18.9304 20.3471 18.4771L20.7566 17.4858C21.758 17.9697 22.7009 18.5817 23.5635 19.3146L22.7783 20.0998C22.435 20.443 22.435 20.9995 22.7783 21.3428C23.1215 21.686 23.678 21.686 24.0212 21.3428L24.8258 20.5382C25.5936 21.3858 26.2413 22.3179 26.7593 23.3132L25.6438 23.7739C25.1952 23.9593 24.9817 24.4732 25.167 24.9219C25.3523 25.3751 25.8774 25.5826 26.3149 25.3987L27.4646 24.9238C27.8467 25.9853 28.0935 27.0986 28.1938 28.2422L19.3061 28.2422Z" fill="black"/>
<path d="M10.9411 7.56873L10.9641 10.6019C10.9662 10.8809 11.1007 11.1423 11.3264 11.3063C11.5522 11.4703 11.8423 11.5174 12.1083 11.4332L15 10.5177L17.8918 11.4331C18.156 11.517 18.4475 11.4708 18.6736 11.3062C18.8994 11.1422 19.0338 10.8808 19.036 10.6018L19.059 7.56867L20.8232 5.10135C20.9855 4.87441 21.0303 4.58391 20.944 4.31854C20.8578 4.05322 20.6508 3.84457 20.3861 3.75633L17.5086 2.79721L15.7071 0.356953C15.5414 0.13248 15.279 0 15 0C14.721 0 14.4586 0.13248 14.2929 0.356953L12.4914 2.79721L9.61395 3.75633C9.34928 3.84457 9.14221 4.05316 9.05596 4.31859C8.96977 4.58391 9.01465 4.87441 9.1769 5.10135L10.9411 7.56873ZM13.3113 4.37684C13.4831 4.31953 13.6329 4.21066 13.7405 4.065L15 2.35881L16.2595 4.065C16.3671 4.21066 16.517 4.31959 16.6887 4.37684L18.7007 5.04744L17.4671 6.77256C17.3619 6.91986 17.3046 7.09606 17.3032 7.27705L17.2871 9.39785L15.2653 8.75777C15.0926 8.70317 14.9074 8.70317 14.7347 8.75777L12.7129 9.39785L12.6968 7.27705C12.6955 7.096 12.6382 6.91981 12.5329 6.77256L11.2993 5.04744L13.3113 4.37684Z" fill="black"/>
</svg>
