<svg width="29" height="33" viewBox="0 0 29 33" fill="none" xmlns="http://www.w3.org/2000/svg">
<path d="M27 6.26263L14.5 2.06758L2 6.26263V14.6006C2 21.4999 6.71379 27.1755 14.5 30.1388C22.2862 27.1755 27 21.4999 27 14.6006V6.26263ZM19.793 10.8677C20.1835 10.4745 20.8165 10.4745 21.207 10.8677C21.5976 11.261 21.5976 11.8984 21.207 12.2917L13.707 19.8439C13.5195 20.0328 13.2652 20.1389 13 20.1389C12.7348 20.1389 12.4805 20.0328 12.293 19.8439L7.79297 15.3126C7.40244 14.9193 7.40244 14.2819 7.79297 13.8886C8.18349 13.4954 8.81651 13.4954 9.20703 13.8886L13 17.708L19.793 10.8677ZM29 14.6006C29 22.7051 23.3513 29.0456 14.8418 32.1616C14.621 32.2424 14.379 32.2424 14.1582 32.1616C5.64869 29.0456 0 22.7051 0 14.6006V5.53789C0 5.10456 0.275413 4.72018 0.683594 4.58303L14.1836 0.0516743C14.3889 -0.0172248 14.6111 -0.0172248 14.8164 0.0516743L28.3164 4.58303C28.7246 4.72018 29 5.10456 29 5.53789V14.6006Z" fill="#050505"/>
</svg>
