<svg width="30" height="26" viewBox="0 0 30 26" fill="none" xmlns="http://www.w3.org/2000/svg">
<path d="M30 14.7119C30 13.4697 29.2322 12.4037 28.1469 11.9646C28.3767 11.5437 28.5073 11.0612 28.5073 10.5486C28.5073 8.91567 27.1804 7.58711 25.5465 7.58711L19.4429 7.60823V4.16946C19.4429 1.87039 17.5748 0 15.2786 0H13.7574C13.272 0 12.8785 0.394002 12.8785 0.879992V5.07245C12.8785 7.61809 10.81 9.68906 8.26758 9.68906H0.878906C0.393516 9.68906 0 10.0831 0 10.5691V23.8497C0 24.3356 0.393516 24.7296 0.878906 24.7296H8.13475L12.1088 25.9607C12.1929 25.9867 12.2805 26 12.3686 26H25.1388C26.7698 26 28.0968 24.6714 28.0968 23.0384C28.0968 22.4933 27.9489 21.9822 27.6913 21.5431C28.6812 21.0637 29.3655 20.0479 29.3655 18.8751C29.3655 18.2131 29.1475 17.6011 28.7795 17.1074C29.5188 16.5685 30 15.6955 30 14.7119ZM1.75781 11.449H7.38867V22.9697H1.75781V11.449ZM27.0421 15.9135H24.2326C23.7472 15.9135 23.3537 16.3075 23.3537 16.7935C23.3537 17.2795 23.7472 17.6735 24.2326 17.6735H26.4077C27.0694 17.6735 27.6078 18.2125 27.6078 18.8751C27.6078 19.5377 27.0694 20.0768 26.4077 20.0768H22.3294C21.844 20.0768 21.4505 20.4708 21.4505 20.9568C21.4505 21.4428 21.844 21.8368 22.3294 21.8368H25.1388C25.8006 21.8368 26.3389 22.3758 26.3389 23.0384C26.3389 23.701 25.8006 24.24 25.1388 24.24H12.5014L9.14648 23.2008V11.3886C12.2438 10.9586 14.6363 8.28999 14.6363 5.07245V1.75992H15.2786C16.6055 1.75992 17.6851 2.84079 17.6851 4.1694V8.49122C17.6851 8.72512 17.7782 8.94946 17.9436 9.11454C18.1084 9.27893 18.3315 9.37121 18.564 9.37121H18.5671L25.5495 9.34704C26.2112 9.34704 26.7495 9.88606 26.7495 10.5486C26.7495 11.2112 26.2112 11.7502 25.5494 11.7502H23.5982C23.1128 11.7502 22.7193 12.1442 22.7193 12.6302C22.7193 13.1162 23.1128 13.5102 23.5982 13.5102L27.0421 13.5102C27.7038 13.5102 28.2421 14.0492 28.2421 14.7118C28.2422 15.3745 27.7039 15.9135 27.0421 15.9135Z" fill="black"/>
</svg>
