<svg width="30" height="30" viewBox="0 0 30 30" fill="none" xmlns="http://www.w3.org/2000/svg">
<path d="M29.1211 11.1806H27.67C27.4087 10.3417 27.0615 9.53197 26.6326 8.76105L27.9824 7.42318C28.1483 7.25877 28.2419 7.035 28.2425 6.80145C28.2432 6.56789 28.1508 6.34359 27.9858 6.17824L23.8369 2.01967C23.4948 1.67672 22.9398 1.67537 22.5959 2.01633L21.142 3.45797C20.3968 3.07412 19.6174 2.76176 18.8128 2.52451V0.878906C18.8128 0.393516 18.4192 0 17.9338 0H12.0662C11.5808 0 11.1873 0.393516 11.1873 0.878906V2.52445C10.3826 2.7617 9.60316 3.07406 8.85809 3.45791L7.40414 2.01627C7.0602 1.67525 6.5052 1.67672 6.16313 2.01961L2.01416 6.17818C1.84916 6.34354 1.75676 6.56777 1.75746 6.80139C1.75816 7.035 1.85174 7.25871 2.01762 7.42313L3.36744 8.761C2.93854 9.53191 2.59131 10.3416 2.32998 11.1805H0.878906C0.393516 11.1805 0 11.574 0 12.0594V17.9405C0 18.4259 0.393516 18.8194 0.878906 18.8194H2.32998C2.59131 19.6583 2.93848 20.468 3.36744 21.2389L2.01762 22.5768C1.85168 22.7412 1.75811 22.9649 1.75746 23.1985C1.75682 23.4321 1.84916 23.6563 2.01416 23.8217L6.16313 27.9802C6.5052 28.3231 7.0602 28.3245 7.40414 27.9836L8.85809 26.542C9.60316 26.9258 10.3826 27.2382 11.1873 27.4754V29.1211C11.1873 29.6065 11.5808 30 12.0662 30H17.9338C18.4192 30 18.8127 29.6065 18.8127 29.1211V27.4755C19.6174 27.2383 20.3968 26.9259 21.1419 26.5421L22.5958 27.9837C22.9397 28.3247 23.4947 28.3233 23.8368 27.9804L27.9858 23.8219C28.1508 23.6565 28.2432 23.4323 28.2425 23.1987C28.2418 22.9651 28.1482 22.7413 27.9823 22.5769L26.6325 21.2391C27.0614 20.4681 27.4086 19.6584 27.67 18.8196H29.1211C29.6065 18.8196 30 18.426 30 17.9406V12.0596C30 11.5741 29.6065 11.1806 29.1211 11.1806ZM28.2422 17.0616H27.0052C26.6028 17.0616 26.252 17.3347 26.1531 17.7247C25.868 18.8503 25.4072 19.9227 24.7836 20.9122C24.564 21.2607 24.6159 21.715 24.9084 22.005L26.1186 23.2045L23.2113 26.1185L21.9139 24.8321C21.6318 24.5523 21.1969 24.4966 20.8533 24.6964C19.8789 25.263 18.8279 25.6834 17.7296 25.9456C17.334 26.0401 17.0548 26.3937 17.0548 26.8005V28.2422H12.9451V26.8005C12.9451 26.3938 12.6659 26.0401 12.2703 25.9457C11.172 25.6834 10.1211 25.2631 9.14666 24.6965C8.80307 24.4966 8.36824 24.5524 8.086 24.8321L6.78861 26.1186L3.88131 23.2046L5.0915 22.0051C5.38406 21.7151 5.43598 21.2608 5.21631 20.9123C4.5927 19.9228 4.13197 18.8504 3.8468 17.7248C3.74801 17.3348 3.39709 17.0617 2.99479 17.0617H1.75781V12.9385H2.99484C3.39715 12.9385 3.74801 12.6654 3.84686 12.2754C4.13203 11.1499 4.59275 10.0774 5.21637 9.08795C5.43604 8.73943 5.38412 8.2851 5.09156 7.99512L3.88137 6.79559L6.78867 3.88154L8.08605 5.16797C8.3683 5.44781 8.80313 5.50354 9.14672 5.30361C10.1211 4.73701 11.1721 4.31672 12.2704 4.05445C12.666 3.96 12.9451 3.60639 12.9451 3.19957V1.75781H17.0549V3.19945C17.0549 3.60621 17.334 3.95988 17.7296 4.05434C18.8279 4.3166 19.8789 4.73689 20.8533 5.3035C21.1969 5.5033 21.6318 5.44764 21.914 5.16785L23.2114 3.88148L26.1187 6.79553L24.9085 7.99506C24.6159 8.28504 24.564 8.73938 24.7837 9.08789C25.4072 10.0772 25.868 11.1497 26.1532 12.2753C26.252 12.6653 26.6029 12.9384 27.0052 12.9384H28.2422V17.0616Z" fill="black"/>
<path d="M17.0672 6.37436C16.8006 6.29215 16.5108 6.34137 16.2863 6.50713C16.0618 6.67283 15.9294 6.93527 15.9294 7.21424V11.2325L14.9988 11.9584L14.0625 11.2313V7.21687C14.0625 6.93762 13.9298 6.675 13.705 6.50936C13.4802 6.34365 13.1902 6.29461 12.9234 6.37734C11.5247 6.81076 10.269 7.69805 9.38736 8.87561C8.47494 10.0943 7.99271 11.5452 7.99271 13.0714C7.99271 15.2051 8.96766 17.2171 10.6223 18.5427V22.7857C10.6223 23.2711 11.0159 23.6646 11.5012 23.6646H18.4987C18.9841 23.6646 19.3776 23.2711 19.3776 22.7857V18.5427C21.0323 17.2171 22.0072 15.2051 22.0072 13.0714C22.0072 11.5434 21.5239 10.0912 20.6098 8.87174C19.7263 7.6933 18.4682 6.80637 17.0672 6.37436ZM17.9963 17.3819C17.7604 17.5462 17.6198 17.8155 17.6198 18.1031V21.9069H12.3802V18.1031C12.3802 17.8155 12.2395 17.5462 12.0036 17.3819C10.5928 16.399 9.75053 14.7877 9.75053 13.0714C9.75053 11.928 10.1115 10.8414 10.7945 9.92918C11.2042 9.38197 11.7213 8.91844 12.3046 8.56775V11.6616C12.3046 11.9331 12.4301 12.1893 12.6445 12.3558L14.4609 13.7664C14.7786 14.013 15.2233 14.0126 15.5405 13.7652L17.3488 12.3546C17.5623 12.1881 17.6871 11.9324 17.6871 11.6616V8.56271C18.2727 8.91328 18.7919 9.37758 19.2032 9.92619C19.8876 10.8391 20.2494 11.9268 20.2494 13.0715C20.2494 14.7876 19.4071 16.399 17.9963 17.3819Z" fill="black"/>
</svg>
