<svg width="10" height="7" viewBox="0 0 10 7" fill="none" xmlns="http://www.w3.org/2000/svg">
<path d="M4.09326 7C3.94149 7.00005 3.79119 6.97047 3.65095 6.91293C3.51072 6.85539 3.3833 6.77103 3.27597 6.66467L0.338229 3.753C0.121603 3.53821 -6.18791e-05 3.24693 2.36104e-08 2.94323C6.19263e-05 2.63953 0.121845 2.34829 0.338559 2.13359C0.555273 1.91889 0.849167 1.7983 1.15558 1.79836C1.462 1.79842 1.75585 1.91913 1.97247 2.13392L4.09293 4.23555L8.02753 0.335554C8.24415 0.120763 8.538 6.13743e-05 8.84442 2.33991e-08C9.15083 -6.13275e-05 9.44473 0.120523 9.66144 0.335227C9.87816 0.549931 9.99994 0.841166 10 1.14486C10.0001 1.44856 9.8784 1.73985 9.66177 1.95464L4.90857 6.66565C4.69213 6.87962 4.39896 6.99985 4.09326 7Z" fill="#123F83"/>
</svg>
