<svg width="30" height="30" viewBox="0 0 30 30" fill="none" xmlns="http://www.w3.org/2000/svg">
<path d="M29.1211 14.1211H27.5496C27.3419 11.0917 26.0633 8.27215 23.8956 6.10441C21.7279 3.93668 18.9083 2.65805 15.8789 2.45033V0.878906C15.8789 0.393516 15.4854 0 15 0C14.5146 0 14.1211 0.393516 14.1211 0.878906V2.45033C11.0917 2.65805 8.27215 3.93668 6.10441 6.10436C3.93674 8.27215 2.65811 11.0917 2.45039 14.1211H0.878906C0.393516 14.1211 0 14.5146 0 15C0 15.4854 0.393516 15.8789 0.878906 15.8789H2.45039C2.65811 18.9083 3.93674 21.7279 6.10441 23.8956C8.27215 26.0633 11.0917 27.342 14.1211 27.5496V29.1211C14.1211 29.6065 14.5146 30 15 30C15.4854 30 15.8789 29.6065 15.8789 29.1211V27.5497C18.9083 27.342 21.7279 26.0633 23.8956 23.8956C26.0633 21.7279 27.342 18.9083 27.5496 15.879H29.1211C29.6065 15.879 30 15.4854 30 15.0001C30 14.5147 29.6065 14.1211 29.1211 14.1211ZM15.8789 25.7866V24.2815C15.8789 23.7962 15.4854 23.4026 15 23.4026C14.5146 23.4026 14.1211 23.7962 14.1211 24.2815V25.7866C8.85311 25.3612 4.63887 21.147 4.21342 15.8789H5.7184C6.20379 15.8789 6.59731 15.4854 6.59731 15C6.59731 14.5146 6.20379 14.1211 5.7184 14.1211H4.21342C4.63887 8.85305 8.85311 4.63881 14.1211 4.21342V5.71846C14.1211 6.20385 14.5146 6.59736 15 6.59736C15.4854 6.59736 15.8789 6.20385 15.8789 5.71846V4.21342C21.1469 4.63881 25.3611 8.85305 25.7866 14.1211H24.2816C23.7962 14.1211 23.4027 14.5146 23.4027 15C23.4027 15.4854 23.7962 15.8789 24.2816 15.8789H25.7866C25.3611 21.147 21.1469 25.3612 15.8789 25.7866Z" fill="black"/>
<path d="M15 8.44898C11.3878 8.44898 8.44898 11.3878 8.44898 15C8.44898 18.6122 11.3878 21.551 15 21.551C18.6122 21.551 21.551 18.6122 21.551 15C21.551 11.3878 18.6122 8.44898 15 8.44898ZM15 19.7932C12.357 19.7932 10.2068 17.643 10.2068 15C10.2068 12.357 12.357 10.2068 15 10.2068C17.643 10.2068 19.7932 12.357 19.7932 15C19.7932 17.643 17.643 19.7932 15 19.7932Z" fill="black"/>
<path d="M17.1008 14.1474C16.6154 14.1474 16.2219 14.5409 16.2219 15.0263C16.2219 15.7001 15.6738 16.2482 15 16.2482C14.3262 16.2482 13.7781 15.7001 13.7781 15.0263C13.7781 14.5409 13.3846 14.1474 12.8992 14.1474C12.4138 14.1474 12.0203 14.5409 12.0203 15.0263C12.0203 16.6693 13.357 18.006 15 18.006C16.643 18.006 17.9797 16.6693 17.9797 15.0263C17.9797 14.5409 17.5862 14.1474 17.1008 14.1474Z" fill="black"/>
</svg>
