<svg width="30" height="30" viewBox="0 0 30 30" fill="none" xmlns="http://www.w3.org/2000/svg">
<path d="M29.1211 16.4249H25.0092V10.8937C25.0092 10.4084 24.6156 10.0148 24.1303 10.0148H18.588C18.2616 8.6826 17.2112 7.63213 15.8789 7.3057V5.36256H19.9908C20.4762 5.36256 20.8697 4.96904 20.8697 4.48365V0.878906C20.8697 0.393516 20.4762 0 19.9908 0H10.0092C9.52377 0 9.13025 0.393516 9.13025 0.878906V4.48365C9.13025 4.96904 9.52377 5.36256 10.0092 5.36256H14.1211V7.3057C12.7888 7.63213 11.7384 8.6826 11.412 10.0148H5.86975C5.38436 10.0148 4.99084 10.4084 4.99084 10.8937V16.4249H0.878906C0.393516 16.4249 0 16.8185 0 17.3038V20.9086C0 21.394 0.393516 21.7875 0.878906 21.7875H4.99084V27.3187C4.99084 27.8041 5.38436 28.1976 5.86975 28.1976H9.13025V29.1211C9.13025 29.6065 9.52377 30 10.0092 30H19.9908C20.4762 30 20.8697 29.6065 20.8697 29.1211V28.1977H24.1303C24.6156 28.1977 25.0092 27.8041 25.0092 27.3187V21.7875H29.1211C29.6065 21.7875 30 21.394 30 20.9086V17.3038C30 16.8185 29.6065 16.4249 29.1211 16.4249ZM10.8881 1.75781H19.1119V3.60475H10.8881V1.75781ZM15 8.95705C16.0676 8.95705 16.9363 9.82547 16.9367 10.893C16.9367 10.8928 16.9367 10.8932 16.9367 10.893C16.9367 10.8932 16.9367 10.8943 16.9367 10.8945C16.9363 11.9621 16.0676 12.8305 15 12.8305C13.9321 12.8305 13.0632 11.9617 13.0632 10.8937C13.0632 9.82582 13.9321 8.95705 15 8.95705ZM1.75781 18.1828H9.98168V20.0297H1.75781V18.1828ZM19.1119 28.2422H10.8881V26.3953H19.1119V28.2422ZM23.2513 26.4398H20.8697V25.5163C20.8697 25.031 20.4762 24.6374 19.9908 24.6374H10.0092C9.52377 24.6374 9.13025 25.031 9.13025 25.5163V26.4398H6.74865V21.7875H10.8606C11.346 21.7875 11.7395 21.394 11.7395 20.9086V17.3038C11.7395 16.8185 11.346 16.4249 10.8606 16.4249H6.74865V11.7727H11.412C11.8075 13.3868 13.2657 14.5883 15 14.5883C16.7343 14.5883 18.1925 13.3868 18.588 11.7727H23.2513V16.4249H19.1394C18.654 16.4249 18.2605 16.8185 18.2605 17.3038V20.9086C18.2605 21.394 18.654 21.7875 19.1394 21.7875H23.2513V26.4398ZM28.2422 20.0297H20.0183V18.1828H28.2422V20.0297Z" fill="black"/>
</svg>
