<svg width="30" height="30" viewBox="0 0 30 30" fill="none" xmlns="http://www.w3.org/2000/svg">
<path d="M25.6067 4.39348C22.7736 1.56029 19.0067 0 15 0C10.9933 0 7.22643 1.56029 4.3933 4.39348C1.56022 7.2266 0 10.9934 0 15C0 19.0066 1.56022 22.7734 4.3933 25.6065C7.22643 28.4397 10.9933 30 15 30C19.0067 30 22.7736 28.4397 25.6067 25.6065C28.4398 22.7734 30 19.0066 30 15C30 10.9934 28.4398 7.2266 25.6067 4.39348ZM15 28.2422C14.0126 28.2422 12.9248 26.9095 12.0903 24.6774C11.7816 23.8519 11.5175 22.9371 11.3011 21.954C12.1648 21.5552 12.8259 20.7913 13.0857 19.8612H19.0726C18.8207 21.6521 18.4281 23.2908 17.9097 24.6774C17.0752 26.9095 15.9874 28.2422 15 28.2422ZM6.78152 18.1034H2.12289C1.88276 17.0988 1.75833 16.059 1.75833 15C1.75833 13.6052 1.97337 12.2437 2.38617 10.9523H9.05574C8.91455 12.2529 8.84116 13.6122 8.84116 15C8.84116 15.2998 8.8458 15.5977 8.85259 15.8945C7.84994 16.2463 7.06942 17.0729 6.78152 18.1034ZM9.93367 17.4681C10.7689 17.4681 11.4484 18.1474 11.4484 18.9824C11.4484 19.8174 10.7689 20.4967 9.93367 20.4967C9.09847 20.4967 8.41893 19.8173 8.41893 18.9824C8.41893 18.1474 9.09847 17.4681 9.93367 17.4681ZM13.0858 18.1034C12.76 16.9374 11.8037 16.0321 10.6086 15.7806C10.6032 15.5215 10.5996 15.2616 10.5996 15C10.5996 13.6055 10.6762 12.2449 10.8237 10.9523H16.7848C17.1195 12.1503 18.1202 13.0726 19.3612 13.2938C19.3869 13.8552 19.4004 14.4246 19.4004 15C19.4004 16.059 19.356 17.0984 19.2702 18.1034H13.0858ZM15 1.75781C15.9874 1.75781 17.0752 3.09047 17.9097 5.3226C18.1218 5.88967 18.3126 6.49922 18.4815 7.14387C17.661 7.55297 17.0359 8.29623 16.7849 9.19453H11.0756C11.3235 7.77076 11.6644 6.46166 12.0903 5.3226C12.9248 3.09047 14.0126 1.75781 15 1.75781ZM19.937 11.5877C19.1018 11.5877 18.4222 10.9084 18.4222 10.0734C18.4222 9.23836 19.1018 8.55908 19.937 8.55908C20.7722 8.55908 21.4517 9.23836 21.4517 10.0734C21.4517 10.9084 20.7722 11.5877 19.937 11.5877ZM21.1134 13.1261C22.0701 12.7563 22.8104 11.95 23.0891 10.9523H27.6138C28.0266 12.2437 28.2417 13.6052 28.2417 15.0001C28.2417 16.0591 28.1172 17.0989 27.8771 18.1035H21.0339C21.1163 17.0943 21.1588 16.0554 21.1588 15.0001C21.1588 14.3684 21.1432 13.743 21.1134 13.1261ZM26.9078 9.19447H23.0891C22.7277 7.90072 21.5896 6.92842 20.2109 6.81363C20.0198 6.06732 19.8016 5.36191 19.5568 4.70713C19.1838 3.70963 18.7584 2.86049 18.2916 2.16844C20.5692 2.74852 22.6579 3.93088 24.3632 5.63625C25.4179 6.69094 26.2718 7.89258 26.9078 9.19447ZM5.63679 5.63625C7.34213 3.93088 9.43085 2.74852 11.7084 2.16844C11.2416 2.86049 10.8162 3.70963 10.4432 4.70713C9.95073 6.02437 9.56407 7.54465 9.29388 9.19447H3.0922C3.72824 7.89258 4.58214 6.69094 5.63679 5.63625ZM2.67606 19.8612H6.78152C7.13453 21.1249 8.22845 22.0821 9.5639 22.233C9.80203 23.3365 10.0964 24.3651 10.4433 25.2928C10.8162 26.2903 11.2417 27.1395 11.7085 27.8315C9.43091 27.2514 7.34219 26.0691 5.63685 24.3637C4.33158 23.0585 3.33314 21.5285 2.67606 19.8612ZM24.3632 24.3638C22.6579 26.0691 20.5692 27.2515 18.2916 27.8316C18.7584 27.1395 19.1838 26.2904 19.5568 25.2929C20.1419 23.7278 20.5779 21.8764 20.8463 19.8613H27.3239C26.6669 21.5285 25.6684 23.0585 24.3632 24.3638Z" fill="black"/>
</svg>
