<svg width="30" height="31" viewBox="0 0 30 31" fill="none" xmlns="http://www.w3.org/2000/svg">
<path opacity="0.5" d="M28.8672 11.8167L26.9107 11.0825C26.7562 10.593 26.5675 10.1211 26.3443 9.6491L27.2196 7.72628C27.5114 7.06203 27.3741 6.27541 26.8764 5.76848L24.3363 3.18141C23.8386 2.67448 23.0663 2.53464 22.4141 2.8318L20.5091 3.72329C20.0629 3.49605 19.5995 3.30377 19.119 3.14645L18.3981 1.13622C18.1407 0.454486 17.5057 0 16.7849 0H13.2151C12.4943 0 11.8421 0.454486 11.6018 1.13622L10.881 3.12897C10.4004 3.30377 9.93705 3.49605 9.47367 3.72329L7.5858 2.8318C6.93362 2.53464 6.16131 2.67448 5.6636 3.18141L3.12356 5.76848C2.62585 6.27541 2.48855 7.06203 2.78031 7.72628L3.6556 9.6491C3.43249 10.1211 3.2437 10.593 3.07208 11.0825L1.11556 11.8167C0.446223 12.0614 0 12.7256 0 13.4598V17.0957C0 17.8299 0.446223 18.4766 1.11556 18.7388L3.08924 19.473C3.2437 19.9625 3.43249 20.4344 3.6556 20.8889L2.78031 22.8292C2.48855 23.4935 2.62585 24.2801 3.12356 24.787L5.6636 27.3741C6.16131 27.881 6.93362 28.0209 7.5858 27.7237L9.47367 26.8322C9.93705 27.0594 10.4004 27.2517 10.881 27.409L11.6018 29.4018C11.8421 30.101 12.4943 30.5555 13.2151 30.5555H16.7849C17.5057 30.5555 18.1407 30.101 18.3981 29.4018L19.119 27.409C19.5995 27.2517 20.0629 27.0594 20.5091 26.8322L22.4141 27.7237C23.0663 28.0209 23.8386 27.881 24.3363 27.3741L26.8764 24.787C27.3741 24.2801 27.5114 23.4935 27.2196 22.8292L26.3443 20.8889C26.5675 20.4344 26.7562 19.9625 26.9107 19.473L28.8672 18.7388C29.5537 18.4766 29.9999 17.8299 29.9999 17.0957V13.4598C29.9999 12.7256 29.5537 12.0614 28.8672 11.8167ZM15 22.2349C11.2414 22.2349 8.16932 19.1059 8.16932 15.2777C8.16932 11.4496 11.2414 8.3206 15 8.3206C18.7585 8.3206 21.8306 11.4496 21.8306 15.2777C21.8306 19.1059 18.7585 22.2349 15 22.2349Z" fill="#123F83"/>
</svg>
