<svg width="51" height="39" viewBox="0 0 51 39" fill="none" xmlns="http://www.w3.org/2000/svg">
<path d="M14.0712 30.4001C9.86637 30.4001 6.04659 29.83 3.26856 28.9106C1.93825 28.4708 0.829826 27.9345 0 27.3256V34.8985C0 35.8606 1.44971 36.8188 3.79093 37.5949C6.41076 38.4635 10.0435 38.9998 14.0712 38.9998C18.099 38.9998 21.7317 38.4635 24.3485 37.5949C26.6927 36.8188 28.1424 35.8606 28.1424 34.8985V27.3256C27.3136 27.9345 26.2052 28.4708 24.8709 28.9106C22.0959 29.83 18.2771 30.4001 14.0712 30.4001ZM4.02277 33.5304C3.87352 33.9622 3.39691 34.193 2.96509 34.0408C2.78698 33.9791 2.60987 33.9134 2.43774 33.8458C2.25466 33.7751 2.0885 33.7075 1.94124 33.6458C1.51836 33.4657 1.32036 32.9771 1.50145 32.5513C1.68154 32.1284 2.17008 31.9304 2.59296 32.1115C2.75116 32.1791 2.89743 32.2408 3.03872 32.2946C3.18797 32.3513 3.34617 32.41 3.51233 32.4697C3.94615 32.6189 4.175 33.0955 4.02277 33.5304ZM9.39773 34.5622C9.33803 35.0159 8.92113 35.3383 8.46443 35.2786C8.2306 35.2477 8.06344 35.2248 7.96494 35.2109C7.85748 35.197 7.6943 35.1711 7.47142 35.1343C7.0177 35.0636 6.70726 34.6348 6.78089 34.1811C6.85154 33.7274 7.28038 33.4199 7.7341 33.4906C7.82763 33.5075 7.98185 33.5304 8.19976 33.5612C8.42562 33.595 8.58582 33.6179 8.67934 33.6289C9.13605 33.6886 9.45743 34.1055 9.39773 34.5622ZM26.642 32.5513C26.8221 32.9771 26.6251 33.4647 26.2022 33.6458C25.0202 34.1532 23.5734 34.5821 21.9406 34.9094C20.3666 35.2248 18.6014 35.4477 16.703 35.5582C16.2463 35.584 15.8513 35.2308 15.8254 34.7741C15.7995 34.3144 16.1528 33.9194 16.6124 33.8945C18.4094 33.793 20.0989 33.5761 21.6163 33.2717C23.1446 32.9672 24.4789 32.5722 25.5485 32.1125C25.9714 31.9314 26.4619 32.1284 26.642 32.5513ZM44.1858 8.04454H49.8891C50.4701 8.04454 50.9438 7.57092 50.9438 6.98984V1.28653C50.9438 0.705451 50.4701 0.228849 49.8891 0.228849H44.1858C43.6047 0.228849 43.1281 0.705451 43.1281 1.28653V3.30339H37.188C36.7283 3.30339 36.3531 3.67551 36.3531 4.13819V18.6661H28.1424V17.0532C27.3136 17.6651 26.2052 18.2015 24.8709 18.6412C22.0959 19.5606 18.2771 20.1307 14.0712 20.1307C9.86538 20.1307 6.04659 19.5606 3.26856 18.6412C1.93825 18.2015 0.829826 17.6651 0 17.0532V24.6261C0 25.5883 1.44971 26.5495 3.79093 27.3256C6.41076 28.1942 10.0435 28.7305 14.0712 28.7305C18.099 28.7305 21.7317 28.1942 24.3485 27.3256C26.6927 26.5495 28.1424 25.5883 28.1424 24.6261V20.3357H36.3531V34.8607C36.3531 35.3233 36.7283 35.6955 37.188 35.6955H43.1281V37.7123C43.1281 38.2934 43.6047 38.77 44.1858 38.77H49.8891C50.4701 38.77 50.9438 38.2934 50.9438 37.7123V32.012C50.9438 31.4309 50.4701 30.9543 49.8891 30.9543H44.1858C43.6047 30.9543 43.1281 31.4309 43.1281 32.012V34.0269H38.0257V20.3357H43.1281V22.3496C43.1281 22.9337 43.6047 23.4073 44.1858 23.4073H49.8891C50.4701 23.4073 50.9438 22.9337 50.9438 22.3496V16.6493C50.9438 16.0682 50.4701 15.5916 49.8891 15.5916H44.1858C43.6047 15.5916 43.1281 16.0682 43.1281 16.6493V18.6661H38.0257V4.97299H43.1281V6.98984C43.1281 7.57092 43.6047 8.04454 44.1858 8.04454ZM4.02277 23.258C3.87352 23.6928 3.39691 23.9237 2.96509 23.7714C2.78698 23.7097 2.60987 23.6441 2.43774 23.5764C2.25466 23.5058 2.0885 23.4381 1.94124 23.3764C1.51836 23.1963 1.32036 22.7048 1.50145 22.2819C1.68254 21.8591 2.17008 21.6611 2.59296 21.8421C2.75116 21.9098 2.89743 21.9695 3.03872 22.0252C3.18797 22.0819 3.34617 22.1406 3.51233 22.1974C3.94615 22.3496 4.175 22.8242 4.02277 23.258ZM9.39773 24.2928C9.33803 24.7465 8.92113 25.0689 8.46443 25.0092C8.2306 24.9784 8.06344 24.9555 7.96494 24.9416C7.85748 24.9276 7.6943 24.8988 7.47142 24.8649C7.0177 24.7913 6.70726 24.3654 6.78089 23.9117C6.85154 23.458 7.28038 23.1476 7.7341 23.2212C7.82763 23.2351 7.98185 23.261 8.19976 23.2918C8.42562 23.3227 8.58582 23.3456 8.67934 23.3595C9.13605 23.4192 9.45743 23.8361 9.39773 24.2928ZM26.2022 23.3764C25.0202 23.8809 23.5734 24.3127 21.9406 24.6401C20.3666 24.9555 18.5985 25.1784 16.703 25.2888C16.2463 25.3147 15.8513 24.9614 15.8254 24.5018C15.7995 24.0421 16.1528 23.65 16.6124 23.6242C18.4094 23.5197 20.0989 23.3058 21.6163 23.0013C23.1446 22.6939 24.4789 22.3018 25.5485 21.8421C25.9714 21.662 26.4619 21.8591 26.643 22.2819C26.8241 22.7048 26.6251 23.1963 26.2022 23.3764ZM3.79093 17.0562C6.41076 17.9219 10.0435 18.4611 14.0712 18.4611C18.099 18.4611 21.7317 17.9229 24.3485 17.0562C26.6927 16.2801 28.1424 15.319 28.1424 14.3568V6.80079C27.3136 7.40973 26.2052 7.94603 24.8709 8.38881C22.0959 9.30818 18.2771 9.87533 14.0712 9.87533C9.86538 9.87533 6.04659 9.30818 3.26856 8.38881C1.93825 7.94603 0.829826 7.40973 0 6.80079V14.3568C0 15.319 1.44971 16.2801 3.79093 17.0562ZM16.6124 13.3558C18.4094 13.2513 20.0989 13.0374 21.6163 12.733C23.1446 12.4255 24.4789 12.0335 25.5485 11.5738C25.9714 11.3937 26.4619 11.5907 26.643 12.0136C26.8231 12.4364 26.6261 12.927 26.2032 13.1081C25.0212 13.6125 23.5744 14.0444 21.9416 14.3717C20.3676 14.6871 18.5994 14.91 16.704 15.0204C16.2473 15.0463 15.8523 14.6931 15.8264 14.2334C15.8005 13.7727 16.1528 13.3807 16.6124 13.3558ZM6.78089 13.6434C6.85154 13.1897 7.28038 12.8792 7.7341 12.9528C7.82763 12.9668 7.98185 12.9897 8.19976 13.0235C8.42562 13.0543 8.58582 13.0772 8.67934 13.0912C9.13605 13.1509 9.45743 13.5678 9.39873 14.0215C9.33903 14.4782 8.92212 14.7996 8.46542 14.7409C8.2316 14.71 8.06444 14.6871 7.96593 14.6732C7.85847 14.6563 7.69529 14.6304 7.47241 14.5966C7.0177 14.523 6.70726 14.0971 6.78089 13.6434ZM1.50045 12.0126C1.68055 11.5897 2.16909 11.3917 2.59196 11.5728C2.75017 11.6405 2.89643 11.7002 3.03772 11.7529C3.18697 11.8126 3.34517 11.8713 3.51134 11.928C3.94615 12.0802 4.17401 12.5539 4.02177 12.9887C3.87252 13.4235 3.39592 13.6513 2.96409 13.5021C2.78599 13.4404 2.60888 13.3747 2.43674 13.3071C2.25366 13.2364 2.0875 13.1688 1.94024 13.1071C1.51737 12.927 1.32036 12.4364 1.50045 12.0126ZM0 4.10436C0 3.1422 1.44971 2.18103 3.79093 1.40493C6.41076 0.539287 10.0435 0 14.0712 0C18.099 0 21.7317 0.538292 24.3485 1.40493C26.6927 2.18103 28.1424 3.1422 28.1424 4.10436C28.1424 5.06652 26.6927 6.0247 24.3485 6.80079C21.7307 7.66942 18.098 8.20573 14.0712 8.20573C10.0445 8.20573 6.41076 7.66942 3.79093 6.80079C1.44971 6.0247 0 5.06652 0 4.10436Z" fill="#0389D0"/>
</svg>
