<svg width="35" height="44" viewBox="0 0 35 44" fill="none" xmlns="http://www.w3.org/2000/svg">
<path d="M23.5692 0.00215723H24.2605C24.65 0.00317385 25.0251 0.148761 25.3133 0.41069L34.0496 8.26708C34.2124 8.41399 34.3426 8.59334 34.4319 8.79359C34.5212 8.99384 34.5676 9.21057 34.5681 9.42983H25.1405C24.7237 9.42983 24.3241 9.26429 24.0294 8.96961C23.7347 8.67494 23.5692 8.27528 23.5692 7.85855V0.00215723ZM34.5681 12.5724V39.2841C34.5149 40.5776 33.9539 41.7979 33.0067 42.6804C32.0595 43.5629 30.8026 44.0363 29.5086 43.998H5.05952C3.76552 44.0363 2.5086 43.5629 1.56142 42.6804C0.614245 41.7979 0.0532006 40.5776 0 39.2841V4.71599C0.0532006 3.42253 0.614245 2.20219 1.56142 1.31973C2.5086 0.437264 3.76552 -0.0361602 5.05952 0.00215723H20.4266V7.85855C20.4266 9.10874 20.9233 10.3077 21.8073 11.1917C22.6913 12.0758 23.8903 12.5724 25.1405 12.5724H34.5681ZM25.1405 34.5703C25.1405 34.1536 24.9749 33.7539 24.6802 33.4592C24.3856 33.1646 23.9859 32.999 23.5692 32.999H10.999C10.5822 32.999 10.1826 33.1646 9.88789 33.4592C9.59322 33.7539 9.42767 34.1536 9.42767 34.5703C9.42767 34.987 9.59322 35.3867 9.88789 35.6814C10.1826 35.976 10.5822 36.1416 10.999 36.1416H23.5692C23.9859 36.1416 24.3856 35.976 24.6802 35.6814C24.9749 35.3867 25.1405 34.987 25.1405 34.5703ZM25.1405 26.7139C25.1405 26.2972 24.9749 25.8975 24.6802 25.6028C24.3856 25.3082 23.9859 25.1426 23.5692 25.1426H10.999C10.5822 25.1426 10.1826 25.3082 9.88789 25.6028C9.59322 25.8975 9.42767 26.2972 9.42767 26.7139C9.42767 27.1306 9.59322 27.5303 9.88789 27.825C10.1826 28.1196 10.5822 28.2852 10.999 28.2852H23.5692C23.9859 28.2852 24.3856 28.1196 24.6802 27.825C24.9749 27.5303 25.1405 27.1306 25.1405 26.7139ZM25.1405 18.8575C25.1405 18.4408 24.9749 18.0411 24.6802 17.7464C24.3856 17.4518 23.9859 17.2862 23.5692 17.2862H10.999C10.5822 17.2862 10.1826 17.4518 9.88789 17.7464C9.59322 18.0411 9.42767 18.4408 9.42767 18.8575C9.42767 19.2742 9.59322 19.6739 9.88789 19.9686C10.1826 20.2632 10.5822 20.4288 10.999 20.4288H23.5692C23.9859 20.4288 24.3856 20.2632 24.6802 19.9686C24.9749 19.6739 25.1405 19.2742 25.1405 18.8575Z" fill="#123F83"/>
</svg>
