<svg width="27" height="9" viewBox="0 0 27 9" fill="none" xmlns="http://www.w3.org/2000/svg">
<path d="M7.49989 0C10.038 0 12.3969 1.27596 14.5604 3.43945C16.3969 5.27596 18.038 6 19.4999 6C20.9618 6 22.6028 5.27596 24.4393 3.43945C25.0251 2.85367 25.9746 2.85367 26.5604 3.43945C27.1462 4.02524 27.1462 4.97476 26.5604 5.56055C24.3969 7.72404 22.038 9 19.4999 9C16.9618 9 14.6028 7.72404 12.4393 5.56055C10.6028 3.72404 8.96175 3 7.49989 3C6.03802 3 4.39694 3.72404 2.56043 5.56055C1.97465 6.14633 1.02513 6.14633 0.43934 5.56055C-0.146447 4.97476 -0.146447 4.02524 0.43934 3.43945C2.60283 1.27596 4.96175 0 7.49989 0Z" fill="#57349D"/>
</svg>
