<svg width="26" height="31" viewBox="0 0 26 31" fill="none" xmlns="http://www.w3.org/2000/svg">
<path d="M25.9676 7.95193C25.9307 7.13919 25.9307 6.36339 25.9307 5.58759C25.9307 4.95957 25.4504 4.47931 24.8224 4.47931C20.2045 4.47931 16.695 3.14937 13.7765 0.304778C13.3332 -0.101593 12.6682 -0.101593 12.2249 0.304778C9.30643 3.14937 5.79687 4.47931 1.17903 4.47931C0.551 4.47931 0.0707438 4.95957 0.0707438 5.58759C0.0707438 6.36339 0.0707437 7.13919 0.033801 7.95193C-0.11397 15.7099 -0.335627 26.3494 12.6313 30.8195L13.0007 30.8934L13.3701 30.8195C26.3001 26.3494 26.1154 15.7469 25.9676 7.95193ZM12.1141 18.7023C11.8924 18.887 11.6338 18.9978 11.3383 18.9978H11.3013C11.0058 18.9978 10.7103 18.85 10.5255 18.6284L7.08987 14.8233L8.75229 13.3456L11.4491 16.3379L17.4338 10.6488L18.9485 12.2742L12.1141 18.7023Z" fill="#123F83"/>
</svg>
