<svg width="40" height="40" viewBox="0 0 40 40" fill="none" xmlns="http://www.w3.org/2000/svg">
<path d="M36.667 15H35.9345L38.75 12.1845V4.6535C39.494 4.2205 40 3.423 40 2.5C40 1.12 38.881 0 37.5 0C36.12 0 35 1.12 35 2.5C35 3.423 35.507 4.2205 36.25 4.6535V11.1495L32.3995 15H30.834V9.6535C31.577 9.221 32.084 8.423 32.084 7.5C32.084 6.12 30.964 5 29.584 5C28.203 5 27.084 6.12 27.084 7.5C27.084 8.423 27.59 9.2205 28.334 9.6535V15H25V1.25H20.07C19.6355 0.5065 18.8395 0 17.9165 0C16.536 0 15.4165 1.12 15.4165 2.5C15.4165 3.8805 16.536 5 17.9165 5C18.8395 5 19.6355 4.494 20.07 3.75H22.5V15H20.9345L12.1845 6.25H4.653C4.2195 5.5065 3.4225 5 2.5 5C1.12 5 0 6.12 0 7.5C0 8.8805 1.12 10 2.5 10C3.423 10 4.2195 9.494 4.6535 8.75H11.1495L17.3995 15H16.667C14.8335 15 13.3335 16.501 13.3335 18.3335V21.25H8.75V17.1535C9.494 16.7205 10 15.923 10 15C10 13.62 8.8805 12.5 7.5 12.5C6.12 12.5 5 13.62 5 15C5 15.923 5.5065 16.7205 6.25 17.1535V23.75H13.3335V26.25H4.6535C4.2195 25.507 3.4225 25 2.5 25C1.12 25 0 26.12 0 27.5C0 28.881 1.12 30 2.5 30C3.423 30 4.2195 29.494 4.6535 28.75H13.3335V31.25H6.9815L3.139 35.093C2.934 35.039 2.7225 35 2.5 35C1.12 35 0 36.12 0 37.5C0 38.881 1.12 40 2.5 40C3.8805 40 5 38.881 5 37.5C5 37.2775 4.962 37.0655 4.907 36.8605L8.017 33.75H13.3335V36.667C13.3335 38.5 14.8335 40 16.667 40H36.667C38.5 40 40 38.5 40 36.667V18.3335C40 16.501 38.5 15 36.667 15ZM26.5575 33.75L26.0585 32.084H22.2755L21.7765 33.75H19.167L22.917 21.25H25.417L29.167 33.75H26.5575ZM34.167 33.75H31.667V21.25H34.167V33.75Z" fill="#0E5E5F"/>
</svg>
