<svg width="28" height="29" viewBox="0 0 28 29" fill="none" xmlns="http://www.w3.org/2000/svg">
<path d="M8.63171 15.6725C8.63171 11.879 11.663 8.79156 15.3875 8.79156C18.2693 8.79156 20.7297 10.6329 21.6948 13.2219C22.456 12.3359 23.5707 11.7959 24.7669 11.7959H27.5943V11.5606C27.3904 10.9375 27.1593 10.3283 26.8602 9.74686L27.8797 7.50397C28.1108 6.97786 28.0021 6.35484 27.6079 5.95334L24.93 3.22588C24.5358 2.82437 23.9241 2.71361 23.4076 2.94898L21.2055 3.98735C20.6209 3.68276 20.0093 3.43355 19.384 3.22588L18.5548 0.913768C18.3509 0.359969 17.8479 0 17.277 0H13.4981C12.9272 0 12.4242 0.359969 12.2203 0.913768L11.3911 3.22588C10.7658 3.43355 10.1542 3.68276 9.56964 3.98735L7.36754 2.94898C6.85099 2.71361 6.2393 2.82437 5.84509 3.22588L3.16723 5.95334C2.77302 6.35484 2.66428 6.97786 2.89536 7.50397L3.91485 9.74686C3.6158 10.3422 3.37112 10.9652 3.16723 11.6021L0.897154 12.4466C0.353424 12.6543 0 13.1666 0 13.7481V17.597C0 18.1784 0.353424 18.6907 0.897154 18.8984L3.16723 19.7429C3.37112 20.3798 3.6158 21.0028 3.91485 21.5982L2.89536 23.841C2.66428 24.3671 2.77302 24.9902 3.16723 25.3917L5.84509 28.1191C6.2393 28.5206 6.85099 28.6314 7.36754 28.396L9.56964 27.3577C10.1542 27.6622 10.7658 27.9115 11.3911 28.1191L11.5814 28.1053V25.2255C11.5814 24.0072 12.1116 22.8719 12.9815 22.0966C10.4396 21.1136 8.63171 18.6076 8.63171 15.6725Z" fill="#0389D0"/>
</svg>
