<svg width="35" height="36" viewBox="0 0 35 36" fill="none" xmlns="http://www.w3.org/2000/svg">
<path d="M10.7897 19.5907C10.7897 14.8488 14.5788 10.9895 19.2345 10.9895C22.8367 10.9895 25.9122 13.2912 27.1186 16.5275C28.0702 15.4199 29.4635 14.745 30.9587 14.745H34.493V14.4508C34.2381 13.672 33.9493 12.9105 33.5755 12.1836L34.8498 9.38001C35.1387 8.72237 35.0028 7.94359 34.51 7.4417L31.1626 4.03237C30.6699 3.53048 29.9053 3.39203 29.2596 3.68624L26.5069 4.98421C25.7763 4.60347 25.0117 4.29196 24.2301 4.03237L23.1936 1.14222C22.9387 0.449964 22.31 0 21.5964 0H16.8727C16.159 0 15.5303 0.449964 15.2755 1.14222L14.239 4.03237C13.4574 4.29196 12.6927 4.60347 11.9621 4.98421L9.20946 3.68624C8.56378 3.39203 7.79916 3.53048 7.3064 4.03237L3.95905 7.4417C3.46629 7.94359 3.33036 8.72237 3.61922 9.38001L4.89359 12.1836C4.51977 12.9278 4.21392 13.7066 3.95905 14.5027L1.12145 15.5584C0.441782 15.8179 0 16.4583 0 17.1851V21.9963C0 22.7232 0.441782 23.3635 1.12145 23.6231L3.95905 24.6788C4.21392 25.4749 4.51977 26.2536 4.89359 26.9978L3.61922 29.8014C3.33036 30.4591 3.46629 31.2379 3.95905 31.7397L7.3064 35.1491C7.79916 35.651 8.56378 35.7894 9.20946 35.4952L11.9621 34.1972C12.6927 34.578 13.4574 34.8895 14.239 35.1491L14.4769 35.1318V31.5321C14.4769 30.0091 15.1395 28.59 16.227 27.6208C13.0496 26.3921 10.7897 23.2597 10.7897 19.5907Z" fill="#123F83"/>
</svg>
