<svg width="30" height="32" viewBox="0 0 30 32" fill="none" xmlns="http://www.w3.org/2000/svg">
<path fill-rule="evenodd" clip-rule="evenodd" d="M26.1916 32.0002C26.3998 32.0002 26.5946 31.9045 26.7222 31.7408C26.8498 31.5772 26.8934 31.3642 26.8397 31.1645C26.8397 31.1645 25.8559 27.4485 25.8559 24.6668C25.8559 22.9271 26.7591 21.3318 27.6356 19.5421C28.5993 17.5718 29.5495 15.3948 29.5495 12.6667C29.5495 6.77304 25.4059 0 16.1179 0C11.568 0 7.78028 2.10368 5.47676 4.79336C3.9019 6.6327 3.02211 8.74872 3.02211 10.6667C3.02211 13.4761 1.60846 14.9961 0.775695 16.1581C0.298873 16.8248 0 17.4188 0 18.0001C0 18.5244 0.265251 18.9641 0.732 19.3064C1.30956 19.7278 2.26658 19.9878 3.02211 20.1818C3.0154 22.4128 2.9885 24.4351 3.32093 25.8615C3.61643 27.1268 4.20412 27.9688 5.15105 28.2962C6.81657 28.8725 8.01869 28.9148 8.91525 29.0272C9.30477 29.0755 9.62036 29.1218 9.87556 29.3055C10.2987 29.6088 10.517 30.2275 10.7587 31.4605C10.8192 31.7738 11.0945 32.0002 11.4169 32.0002H26.1916ZM19.4758 6.6667V5.33336C19.4758 4.96536 19.1736 4.66669 18.8043 4.66669C18.4349 4.66669 18.1327 4.96536 18.1327 5.33336V6.6667H16.7895V5.33336C16.7895 4.96536 16.4873 4.66669 16.1179 4.66669C15.7486 4.66669 15.4464 4.96536 15.4464 5.33336V6.6667H14.1032V5.33336C14.1032 4.96536 13.801 4.66669 13.4316 4.66669C13.0622 4.66669 12.76 4.96536 12.76 5.33336V6.6667H11.7527C11.2188 6.6667 10.705 6.87737 10.3289 7.25237C9.94947 7.62771 9.73792 8.13638 9.73792 8.66672V9.66672H8.39476C8.02539 9.66672 7.72318 9.96539 7.72318 10.3334C7.72318 10.7014 8.02539 11.0001 8.39476 11.0001H9.73792V12.3334H8.39476C8.02539 12.3334 7.72318 12.6321 7.72318 13.0001C7.72318 13.3681 8.02539 13.6667 8.39476 13.6667H9.73792V15.0001H8.39476C8.02539 15.0001 7.72318 15.2988 7.72318 15.6668C7.72318 16.0348 8.02539 16.3334 8.39476 16.3334H9.73792V17.3334C9.73792 17.8638 9.94947 18.3724 10.3289 18.7478C10.705 19.1228 11.2188 19.3334 11.7527 19.3334H12.76V20.6668C12.76 21.0348 13.0622 21.3335 13.4316 21.3335C13.801 21.3335 14.1032 21.0348 14.1032 20.6668V19.3334H15.4464V20.6668C15.4464 21.0348 15.7486 21.3335 16.1179 21.3335C16.4873 21.3335 16.7895 21.0348 16.7895 20.6668V19.3334H18.1327V20.6668C18.1327 21.0348 18.4349 21.3335 18.8043 21.3335C19.1736 21.3335 19.4758 21.0348 19.4758 20.6668V19.3334H20.4832C21.0171 19.3334 21.5309 19.1228 21.907 18.7478C22.2864 18.3724 22.498 17.8638 22.498 17.3334V16.3334H23.8411C24.2105 16.3334 24.5127 16.0348 24.5127 15.6668C24.5127 15.2988 24.2105 15.0001 23.8411 15.0001H22.498V13.6667H23.8411C24.2105 13.6667 24.5127 13.3681 24.5127 13.0001C24.5127 12.6321 24.2105 12.3334 23.8411 12.3334H22.498V11.0001H23.8411C24.2105 11.0001 24.5127 10.7014 24.5127 10.3334C24.5127 9.96539 24.2105 9.66672 23.8411 9.66672H22.498V8.66672C22.498 8.13638 22.2864 7.62771 21.907 7.25237C21.5309 6.87737 21.0171 6.6667 20.4832 6.6667H19.4758ZM11.0811 17.3334V8.66672C11.0811 8.49005 11.1516 8.32038 11.2792 8.19538C11.4035 8.07038 11.5747 8.00005 11.7527 8.00005H20.4832C20.6612 8.00005 20.8324 8.07038 20.9566 8.19538C21.0842 8.32038 21.1548 8.49005 21.1548 8.66672V17.3334C21.1548 17.5101 21.0842 17.6798 20.9566 17.8048C20.8324 17.9298 20.6612 18.0001 20.4832 18.0001H11.7527C11.5747 18.0001 11.4035 17.9298 11.2792 17.8048C11.1516 17.6798 11.0811 17.5101 11.0811 17.3334ZM15.7821 14.3334V16.0001C15.7821 16.3681 16.0844 16.6668 16.4537 16.6668C16.8231 16.6668 17.1253 16.3681 17.1253 16.0001V11.6667C17.1253 11.0477 16.8768 10.4544 16.4369 10.0167C15.997 9.57905 15.3993 9.33339 14.7748 9.33339C14.1502 9.33339 13.5525 9.57905 13.1126 10.0167C12.6727 10.4544 12.4242 11.0477 12.4242 11.6667V16.0001C12.4242 16.3681 12.7265 16.6668 13.0958 16.6668C13.4652 16.6668 13.7674 16.3681 13.7674 16.0001V14.3334H15.7821ZM19.8116 16.0001V10.0001C19.8116 9.63205 19.5094 9.33339 19.14 9.33339C18.7707 9.33339 18.4685 9.63205 18.4685 10.0001V16.0001C18.4685 16.3681 18.7707 16.6668 19.14 16.6668C19.5094 16.6668 19.8116 16.3681 19.8116 16.0001ZM13.7674 13.0001H15.7821V11.6667C15.7821 11.4014 15.6747 11.1471 15.4867 10.9597C15.2986 10.7721 15.0434 10.6667 14.7748 10.6667C14.5061 10.6667 14.2509 10.7721 14.0629 10.9597C13.8748 11.1471 13.7674 11.4014 13.7674 11.6667V13.0001Z" fill="#0E5E5F"/>
</svg>
