<svg width="32" height="32" viewBox="0 0 32 32" fill="none" xmlns="http://www.w3.org/2000/svg">
<path fill-rule="evenodd" clip-rule="evenodd" d="M8.00004 0C8.88369 0 9.60005 0.716356 9.60005 1.60001V3.20002H22.4001V1.60001C22.4001 0.716356 23.1164 0 24.0001 0C24.8838 0 25.6001 0.716356 25.6001 1.60001V3.20002H27.2001C29.8512 3.20002 32.0002 5.34907 32.0002 8.00004V27.2001C32.0002 29.8512 29.8512 32.0002 27.2001 32.0002H4.80002C2.14905 32.0002 0 29.8512 0 27.2001V8.00004C0 5.34907 2.14905 3.20002 4.80002 3.20002H6.40003V1.60001C6.40003 0.716356 7.11639 0 8.00004 0ZM3.20002 12.8001H28.8001V27.2001C28.8001 28.0838 28.0838 28.8001 27.2001 28.8001H4.80002C3.91637 28.8001 3.20002 28.0838 3.20002 27.2001V12.8001Z" fill="#0389D0"/>
</svg>
