<svg width="31" height="31" viewBox="0 0 31 31" fill="none" xmlns="http://www.w3.org/2000/svg">
<path d="M24.5217 19.9806C28.0273 19.9806 30.8791 17.1287 30.8791 13.6231C30.8791 12.0418 30.2947 10.5262 29.2332 9.3555C28.3737 8.40732 27.2595 7.74722 26.0344 7.44779C25.9698 3.32987 22.6 0 18.4669 0C16.0959 0 13.9164 1.08418 12.4881 2.93773C11.6991 2.59857 10.8493 2.42189 9.99031 2.42189C6.48471 2.42189 3.63284 5.27376 3.63284 8.77936C3.63284 9.15116 3.66642 9.52225 3.73288 9.89002C1.57116 10.5083 0 12.5056 0 14.8341C0 17.6718 2.30884 19.9806 5.14652 19.9806H9.68757V25.8045L7.29453 26.6023C6.79525 25.9632 6.01831 25.551 5.14652 25.551C3.64419 25.551 2.42189 26.7733 2.42189 28.2756C2.42189 29.7779 3.64419 31.0002 5.14652 31.0002C6.6323 31.0002 7.84324 29.8046 7.86997 28.325L10.8829 27.3208C11.2538 27.1971 11.504 26.8501 11.504 26.4592V19.9806H14.5314V25.7071C13.4741 26.0822 12.7149 27.0916 12.7149 28.2756C12.7149 29.7779 13.9372 31.0002 15.4396 31.0002C16.9419 31.0002 18.1642 29.7779 18.1642 28.2756C18.1642 27.0916 17.405 26.0822 16.3478 25.7071V19.9806H19.3751V26.4592C19.3751 26.8501 19.6254 27.1971 19.9962 27.3208L23.0092 28.325C23.0359 29.8046 24.2468 31.0002 25.7326 31.0002C27.2349 31.0002 28.4572 29.7779 28.4572 28.2756C28.4572 26.7733 27.2349 25.551 25.7326 25.551C24.8608 25.551 24.0839 25.9632 23.5846 26.6023L21.1916 25.8045V19.9806H24.5217ZM5.14652 29.1838C4.64488 29.1838 4.23831 28.7772 4.23831 28.2756C4.23831 27.7739 4.64488 27.3674 5.14652 27.3674C5.64816 27.3674 6.05473 27.7739 6.05473 28.2756C6.05473 28.7772 5.64816 29.1838 5.14652 29.1838ZM15.4396 29.1838C14.9379 29.1838 14.5314 28.7772 14.5314 28.2756C14.5314 27.7739 14.9379 27.3674 15.4396 27.3674C15.9412 27.3674 16.3478 27.7739 16.3478 28.2756C16.3478 28.7772 15.9412 29.1838 15.4396 29.1838ZM25.7326 27.3674C26.2342 27.3674 26.6408 27.7739 26.6408 28.2756C26.6408 28.7772 26.2342 29.1838 25.7326 29.1838C25.231 29.1838 24.8244 28.7772 24.8244 28.2756C24.8244 27.7739 25.231 27.3674 25.7326 27.3674Z" fill="#57349D"/>
</svg>
