<svg width="10" height="11" viewBox="0 0 10 11" fill="none" xmlns="http://www.w3.org/2000/svg">
<path d="M9.69375 7.36883L5.92827 3.60359V0.943335C5.92827 0.42229 5.50598 0 4.98494 0C4.46414 0 4.0416 0.42229 4.0416 0.943335V3.60359L0.276368 7.36883C0.0994924 7.54595 0 7.78571 0 8.03604C0 8.28612 0.0992468 8.52613 0.276368 8.70301L2.29717 10.7238C2.66566 11.0921 3.26286 11.0923 3.63135 10.7238C3.99959 10.3553 3.99959 9.75812 3.63135 9.38987L2.27752 8.03604L4.98518 5.32837L7.69261 8.03604L6.33902 9.38987C5.97053 9.75812 5.97053 10.3553 6.33902 10.7238C6.52326 10.9081 6.7645 11.0002 7.00599 11.0002C7.24722 11.0002 7.48871 10.9081 7.67295 10.7238L9.69375 8.70301C10.062 8.33452 10.062 7.73732 9.69375 7.36883Z" fill="#123F83"/>
</svg>
