<svg width="13" height="12" viewBox="0 0 13 12" fill="none" xmlns="http://www.w3.org/2000/svg">
<path d="M7.76259 1.11648C7.54624 0.450793 6.9258 0 6.22586 0C5.52591 0 4.90547 0.450793 4.68912 1.11648L3.96365 3.34928H1.61586C0.915869 3.34928 0.295504 3.80007 0.0791885 4.46576C-0.137111 5.13161 0.0998374 5.86079 0.66614 6.27232L2.56556 7.65233L1.84004 9.88513C1.62374 10.551 1.86071 11.2802 2.42701 11.6917C2.9933 12.1031 3.76007 12.1031 4.32639 11.6917L6.22586 10.3117L8.12533 11.6917C8.69164 12.1031 9.45848 12.1031 10.0246 11.6917C10.591 11.2802 10.828 10.551 10.6116 9.88513L9.88617 7.65233L11.7856 6.27232C12.3518 5.86079 12.5888 5.13161 12.3725 4.46576C12.1561 3.80007 11.5358 3.34928 10.8359 3.34928H8.48806L7.76259 1.11648Z" fill="#57349D"/>
</svg>
