<svg width="24" height="24" viewBox="0 0 24 24" fill="none" xmlns="http://www.w3.org/2000/svg">
<path opacity="0.5" d="M22.6739 9.28147L21.1372 8.70481C21.0159 8.32037 20.8676 7.94966 20.6923 7.57895L21.3798 6.06865C21.609 5.54691 21.5011 4.92906 21.1102 4.53089L19.1151 2.49886C18.7242 2.10069 18.1176 1.99085 17.6053 2.22426L16.109 2.92448C15.7585 2.74599 15.3946 2.59496 15.0171 2.4714L14.4509 0.892448C14.2487 0.356979 13.7499 0 13.1838 0H10.3799C9.81369 0 9.30144 0.356979 9.11271 0.892448L8.54654 2.45767C8.16909 2.59497 7.80512 2.74599 7.44115 2.92448L5.95831 2.22426C5.44606 1.99085 4.83944 2.10069 4.44851 2.49886L2.45342 4.53089C2.06249 4.92906 1.95465 5.54691 2.18382 6.06865L2.87131 7.57895C2.69607 7.94966 2.54778 8.32037 2.41298 8.70481L0.876222 9.28147C0.350488 9.47369 0 9.99542 0 10.5721V13.4279C0 14.0046 0.350488 14.5126 0.876222 14.7185L2.42646 15.2952C2.54778 15.6796 2.69607 16.0503 2.87131 16.4073L2.18382 17.9314C1.95465 18.4531 2.06249 19.0709 2.45342 19.4691L4.44851 21.5011C4.83944 21.8993 5.44606 22.0092 5.95831 21.7757L7.44115 21.0755C7.80512 21.254 8.16909 21.405 8.54654 21.5286L9.11271 23.0938C9.30144 23.643 9.81369 24 10.3799 24H13.1838C13.7499 24 14.2487 23.643 14.4509 23.0938L15.0171 21.5286C15.3946 21.405 15.7585 21.254 16.109 21.0755L17.6053 21.7757C18.1176 22.0092 18.7242 21.8993 19.1151 21.5011L21.1102 19.4691C21.5011 19.0709 21.609 18.4531 21.3798 17.9314L20.6923 16.4073C20.8676 16.0503 21.0159 15.6796 21.1372 15.2952L22.6739 14.7185C23.2132 14.5126 23.5636 14.0046 23.5636 13.4279V10.5721C23.5636 9.99542 23.2132 9.47369 22.6739 9.28147ZM11.7818 17.4645C8.82962 17.4645 6.41664 15.0069 6.41664 12C6.41664 8.99314 8.82962 6.53547 11.7818 6.53547C14.734 6.53547 17.147 8.99314 17.147 12C17.147 15.0069 14.734 17.4645 11.7818 17.4645Z" fill="#123F83"/>
</svg>
