<svg width="39" height="29" viewBox="0 0 39 29" fill="none" xmlns="http://www.w3.org/2000/svg">
<path d="M10.7722 22.6053C7.5532 22.6053 4.62896 22.1813 2.50225 21.4977C1.48383 21.1707 0.635273 20.7719 0 20.3191V25.9502C0 26.6657 1.10982 27.3782 2.90215 27.9553C4.90775 28.6012 7.68879 29 10.7722 29C13.8557 29 16.6367 28.6012 18.64 27.9553C20.4346 27.3782 21.5445 26.6657 21.5445 25.9502V20.3191C20.9099 20.7719 20.0614 21.1707 19.0399 21.4977C16.9155 22.1813 13.992 22.6053 10.7722 22.6053ZM3.07963 24.9329C2.96537 25.254 2.60051 25.4257 2.26992 25.3125C2.13357 25.2666 1.99799 25.2178 1.86621 25.1675C1.72605 25.1149 1.59885 25.0646 1.48611 25.0188C1.16238 24.8848 1.0108 24.5216 1.14943 24.2049C1.2873 23.8904 1.66131 23.7432 1.98504 23.8779C2.10615 23.9282 2.21813 23.9741 2.32629 24.014C2.44055 24.0562 2.56166 24.0998 2.68887 24.1442C3.02098 24.2552 3.19617 24.6096 3.07963 24.9329ZM7.19443 25.7002C7.14873 26.0376 6.82957 26.2773 6.47994 26.2329C6.30094 26.2099 6.17297 26.1929 6.09756 26.1826C6.01529 26.1722 5.89037 26.153 5.71975 26.1256C5.3724 26.0731 5.13475 25.7542 5.19111 25.4168C5.2452 25.0794 5.5735 24.8508 5.92084 24.9033C5.99244 24.9159 6.11051 24.9329 6.27733 24.9559C6.45024 24.981 6.57287 24.998 6.64447 25.0062C6.9941 25.0506 7.24014 25.3606 7.19443 25.7002ZM20.3958 24.2049C20.5337 24.5216 20.3828 24.8841 20.0591 25.0188C19.1542 25.3961 18.0466 25.715 16.7967 25.9584C15.5916 26.1929 14.2403 26.3587 12.787 26.4408C12.4373 26.46 12.1349 26.1974 12.1151 25.8578C12.0953 25.5159 12.3657 25.2222 12.7177 25.2037C14.0933 25.1283 15.3867 24.967 16.5483 24.7406C17.7183 24.5142 18.7398 24.2204 19.5587 23.8786C19.8824 23.744 20.2579 23.8904 20.3958 24.2049ZM33.8264 5.98186H38.1926C38.6374 5.98186 39 5.62968 39 5.1976V0.956653C39 0.524568 38.6374 0.17017 38.1926 0.17017H33.8264C33.3816 0.17017 33.0167 0.524568 33.0167 0.956653V2.45637H28.4692C28.1173 2.45637 27.8302 2.73308 27.8302 3.07712V13.88H21.5445V12.6807C20.9099 13.1357 20.0614 13.5345 19.0399 13.8615C16.9155 14.5451 13.992 14.9691 10.7722 14.9691C7.55244 14.9691 4.62896 14.5451 2.50225 13.8615C1.48383 13.5345 0.635273 13.1357 0 12.6807V18.3118C0 19.0273 1.10982 19.742 2.90215 20.3191C4.90775 20.965 7.68879 21.3638 10.7722 21.3638C13.8557 21.3638 16.6367 20.965 18.64 20.3191C20.4346 19.742 21.5445 19.0273 21.5445 18.3118V15.1215H27.8302V25.9221C27.8302 26.2662 28.1173 26.5429 28.4692 26.5429H33.0167V28.0426C33.0167 28.4747 33.3816 28.8291 33.8264 28.8291H38.1926C38.6374 28.8291 39 28.4747 39 28.0426V23.8039C39 23.3718 38.6374 23.0174 38.1926 23.0174H33.8264C33.3816 23.0174 33.0167 23.3718 33.0167 23.8039V25.3021H29.1106V15.1215H33.0167V16.619C33.0167 17.0533 33.3816 17.4055 33.8264 17.4055H38.1926C38.6374 17.4055 39 17.0533 39 16.619V12.3803C39 11.9482 38.6374 11.5938 38.1926 11.5938H33.8264C33.3816 11.5938 33.0167 11.9482 33.0167 12.3803V13.88H29.1106V3.69788H33.0167V5.1976C33.0167 5.62968 33.3816 5.98186 33.8264 5.98186ZM3.07963 17.2945C2.96537 17.6178 2.60051 17.7895 2.26992 17.6763C2.13357 17.6304 1.99799 17.5816 1.86621 17.5313C1.72605 17.4787 1.59885 17.4284 1.48611 17.3825C1.16238 17.2486 1.0108 16.8831 1.14943 16.5687C1.28807 16.2542 1.66131 16.107 1.98504 16.2417C2.10615 16.292 2.21813 16.3364 2.32629 16.3778C2.44055 16.42 2.56166 16.4636 2.68887 16.5058C3.02098 16.619 3.19617 16.9719 3.07963 17.2945ZM7.19443 18.064C7.14873 18.4013 6.82957 18.6411 6.47994 18.5967C6.30094 18.5737 6.17297 18.5567 6.09756 18.5464C6.01529 18.536 5.89037 18.5145 5.71975 18.4894C5.3724 18.4346 5.13475 18.118 5.19111 17.7806C5.2452 17.4432 5.5735 17.2124 5.92084 17.2671C5.99244 17.2775 6.11051 17.2967 6.27733 17.3196C6.45024 17.3426 6.57287 17.3596 6.64447 17.37C6.9941 17.4144 7.24014 17.7244 7.19443 18.064ZM20.0591 17.3825C19.1542 17.7577 18.0466 18.0788 16.7967 18.3222C15.5916 18.5567 14.238 18.7224 12.787 18.8046C12.4373 18.8238 12.1349 18.5611 12.1151 18.2193C12.0953 17.8775 12.3657 17.586 12.7177 17.5668C14.0933 17.4891 15.3867 17.33 16.5483 17.1036C17.7183 16.875 18.7398 16.5835 19.5587 16.2417C19.8824 16.1077 20.2579 16.2542 20.3965 16.5687C20.5352 16.8831 20.3828 17.2486 20.0591 17.3825ZM2.90215 12.6829C4.90775 13.3266 7.68879 13.7276 10.7722 13.7276C13.8557 13.7276 16.6367 13.3273 18.64 12.6829C20.4346 12.1058 21.5445 11.3911 21.5445 10.6756V5.05702C20.9099 5.50982 20.0614 5.90861 19.0399 6.23785C16.9155 6.9215 13.992 7.34322 10.7722 7.34322C7.55244 7.34322 4.62896 6.9215 2.50225 6.23785C1.48383 5.90861 0.635273 5.50982 0 5.05702V10.6756C0 11.3911 1.10982 12.1058 2.90215 12.6829ZM12.7177 9.93129C14.0933 9.85361 15.3867 9.69453 16.5483 9.46813C17.7183 9.23951 18.7398 8.948 19.5587 8.60618C19.8824 8.47227 20.2579 8.61876 20.3965 8.93321C20.5344 9.24765 20.3836 9.61241 20.0599 9.74706C19.1549 10.1222 18.0474 10.4433 16.7974 10.6867C15.5924 10.9212 14.2388 11.087 12.7877 11.1691C12.4381 11.1883 12.1357 10.9257 12.1159 10.5839C12.0961 10.2413 12.3657 9.94979 12.7177 9.93129ZM5.19111 10.1451C5.2452 9.80773 5.5735 9.57689 5.92084 9.63164C5.99244 9.642 6.11051 9.65902 6.27733 9.68418C6.45024 9.70711 6.57287 9.72413 6.64447 9.73449C6.9941 9.77888 7.24014 10.0889 7.1952 10.4263C7.14949 10.7659 6.83033 11.0048 6.4807 10.9612C6.3017 10.9383 6.17373 10.9212 6.09832 10.9109C6.01605 10.8983 5.89113 10.8791 5.72051 10.8539C5.3724 10.7992 5.13475 10.4825 5.19111 10.1451ZM1.14867 8.93247C1.28654 8.61802 1.66055 8.47079 1.98428 8.60544C2.10539 8.65576 2.21736 8.70015 2.32553 8.73936C2.43979 8.78375 2.5609 8.8274 2.68811 8.86958C3.02098 8.98278 3.19541 9.33496 3.07887 9.65828C2.96461 9.9816 2.59975 10.151 2.26916 10.0401C2.13281 9.99418 1.99723 9.94535 1.86545 9.89504C1.72529 9.84251 1.59809 9.7922 1.48535 9.74632C1.16162 9.61241 1.0108 9.24765 1.14867 8.93247ZM0 3.05197C0 2.33651 1.10982 1.6218 2.90215 1.0447C4.90775 0.40101 7.68879 0 10.7722 0C13.8557 0 16.6367 0.40027 18.64 1.0447C20.4346 1.6218 21.5445 2.33651 21.5445 3.05197C21.5445 3.76742 20.4346 4.47992 18.64 5.05702C16.6359 5.70293 13.8549 6.10172 10.7722 6.10172C7.68955 6.10172 4.90775 5.70293 2.90215 5.05702C1.10982 4.47992 0 3.76742 0 3.05197Z" fill="#0389D0"/>
</svg>
