<svg width="52" height="52" viewBox="0 0 52 52" fill="none" xmlns="http://www.w3.org/2000/svg">
<path d="M47.6669 19.4999H46.7147L50.3748 15.8398V6.04953C51.342 5.48663 51.9998 4.44988 51.9998 3.24999C51.9998 1.45599 50.5451 0 48.7498 0C46.9558 0 45.4998 1.45599 45.4998 3.24999C45.4998 4.44988 46.1589 5.48663 47.1248 6.04953V14.4943L42.1192 19.4999H40.084V12.5495C41.0499 11.9873 41.709 10.9499 41.709 9.74996C41.709 7.95597 40.253 6.49997 38.4591 6.49997C36.6638 6.49997 35.2091 7.95597 35.2091 9.74996C35.2091 10.9499 35.8669 11.9866 36.8341 12.5495V19.4999H32.4999V1.62499H26.0909C25.5261 0.658448 24.4913 0 23.2914 0C21.4967 0 20.0414 1.45599 20.0414 3.24999C20.0414 5.04463 21.4967 6.49997 23.2914 6.49997C24.4913 6.49997 25.5261 5.84218 26.0909 4.87498H29.2499V19.4999H27.2147L15.8398 8.12497H6.04888C5.48533 7.15842 4.44923 6.49997 3.24999 6.49997C1.45599 6.49997 0 7.95597 0 9.74996C0 11.5446 1.45599 12.9999 3.24999 12.9999C4.44988 12.9999 5.48533 12.3422 6.04953 11.375H14.4943L22.6193 19.4999H21.667C19.2835 19.4999 17.3335 21.4512 17.3335 23.8335V27.6249H11.375V22.2995C12.3422 21.7366 12.9999 20.6998 12.9999 19.4999C12.9999 17.7059 11.5446 16.2499 9.74996 16.2499C7.95597 16.2499 6.49997 17.7059 6.49997 19.4999C6.49997 20.6998 7.15842 21.7366 8.12497 22.2995V30.8749H17.3335V34.1249H6.04953C5.48533 33.159 4.44923 32.4999 3.24999 32.4999C1.45599 32.4999 0 33.9559 0 35.7499C0 37.5452 1.45599 38.9998 3.24999 38.9998C4.44988 38.9998 5.48533 38.3421 6.04953 37.3749H17.3335V40.6248H9.07591L4.08068 45.6207C3.81419 45.5505 3.53924 45.4998 3.24999 45.4998C1.45599 45.4998 0 46.9558 0 48.7498C0 50.5451 1.45599 51.9998 3.24999 51.9998C5.04463 51.9998 6.49997 50.5451 6.49997 48.7498C6.49997 48.4606 6.45057 48.185 6.37907 47.9185L10.4221 43.8748H17.3335V47.6669C17.3335 50.0498 19.2835 51.9998 21.667 51.9998H47.6669C50.0498 51.9998 51.9998 50.0498 51.9998 47.6669V23.8335C51.9998 21.4512 50.0498 19.4999 47.6669 19.4999ZM34.5246 43.8748L33.8759 41.709H28.958L28.3093 43.8748H24.917L29.792 27.6249H33.042L37.917 43.8748H34.5246ZM44.4169 43.8748H41.1669V27.6249H44.4169V43.8748Z" fill="#123F83"/>
</svg>
