<svg width="31" height="31" viewBox="0 0 31 31" fill="none" xmlns="http://www.w3.org/2000/svg">
<path d="M28.417 11.625H27.8493L30.0313 9.44302V3.60647C30.6079 3.2709 31.0001 2.65283 31.0001 1.93751C31.0001 0.868003 30.1329 0 29.0626 0C27.9931 0 27.1251 0.868003 27.1251 1.93751C27.1251 2.65283 27.518 3.2709 28.0938 3.60647V8.64089L25.1097 11.625H23.8964V7.48149C24.4723 7.1463 24.8652 6.52785 24.8652 5.81252C24.8652 4.74302 23.9972 3.87501 22.9277 3.87501C21.8574 3.87501 20.9902 4.74302 20.9902 5.81252C20.9902 6.52785 21.3823 7.14591 21.9589 7.48149V11.625H19.3751V0.968753H15.5543C15.2176 0.392539 14.6007 0 13.8853 0C12.8154 0 11.9478 0.868003 11.9478 1.93751C11.9478 3.0074 12.8154 3.87501 13.8853 3.87501C14.6007 3.87501 15.2176 3.48286 15.5543 2.90626H17.4376V11.625H16.2243L9.44302 4.84377H3.60609C3.27012 4.26755 2.65245 3.87501 1.93751 3.87501C0.868003 3.87501 0 4.74302 0 5.81252C0 6.88241 0.868003 7.75002 1.93751 7.75002C2.65283 7.75002 3.27012 7.35787 3.60647 6.78127H8.64089L13.4847 11.625H12.917C11.496 11.625 10.3335 12.7883 10.3335 14.2085V16.4688H6.78127V13.294C7.35787 12.9584 7.75002 12.3404 7.75002 11.625C7.75002 10.5555 6.88241 9.68753 5.81252 9.68753C4.74302 9.68753 3.87501 10.5555 3.87501 11.625C3.87501 12.3404 4.26755 12.9584 4.84377 13.294V18.4063H10.3335V20.3438H3.60647C3.27012 19.768 2.65245 19.3751 1.93751 19.3751C0.868003 19.3751 0 20.2431 0 21.3126C0 22.3828 0.868003 23.2501 1.93751 23.2501C2.65283 23.2501 3.27012 22.8579 3.60647 22.2813H10.3335V24.2188H5.41068L2.43273 27.1972C2.27386 27.1553 2.10994 27.1251 1.93751 27.1251C0.868003 27.1251 0 27.9931 0 29.0626C0 30.1329 0.868003 31.0001 1.93751 31.0001C3.0074 31.0001 3.87501 30.1329 3.87501 29.0626C3.87501 28.8902 3.84556 28.7259 3.80294 28.567L6.2132 26.1563H10.3335V28.417C10.3335 29.8376 11.496 31.0001 12.917 31.0001H28.417C29.8376 31.0001 31.0001 29.8376 31.0001 28.417V14.2085C31.0001 12.7883 29.8376 11.625 28.417 11.625ZM20.5821 26.1563L20.1954 24.8652H17.2636L16.8768 26.1563H14.8545L17.7607 16.4688H19.6982L22.6045 26.1563H20.5821ZM26.4795 26.1563H24.542V16.4688H26.4795V26.1563Z" fill="#123F83"/>
</svg>
