<svg width="28" height="28" viewBox="0 0 28 28" fill="none" xmlns="http://www.w3.org/2000/svg">
<path d="M13.7718 7.32955H20.0187V7.85498C20.0187 8.30801 20.386 8.6753 20.839 8.6753C21.292 8.6753 21.6593 8.30801 21.6593 7.85498V7.32955H23.2426C23.6957 7.32955 24.0629 6.96227 24.0629 6.50923C24.0629 6.0562 23.6957 5.68892 23.2426 5.68892H21.6593V5.16343C21.6593 4.7104 21.292 4.34312 20.839 4.34312C20.386 4.34312 20.0187 4.7104 20.0187 5.16343V5.68887H13.7718C13.3188 5.68887 12.9515 6.05615 12.9515 6.50918C12.9515 6.96221 13.3188 7.32955 13.7718 7.32955Z" fill="#364259"/>
<path d="M13.7718 21.998H15.355V22.6787C15.355 23.1317 15.7223 23.499 16.1754 23.499C16.6284 23.499 16.9957 23.1317 16.9957 22.6787V21.998H23.2426C23.6957 21.998 24.0629 21.6307 24.0629 21.1777C24.0629 20.7246 23.6957 20.3574 23.2426 20.3574H16.9957V19.9871C16.9957 19.5341 16.6284 19.1668 16.1754 19.1668C15.7223 19.1668 15.355 19.5341 15.355 19.9871V20.3574H13.7718C13.3188 20.3574 12.9515 20.7246 12.9515 21.1777C12.9515 21.6307 13.3188 21.998 13.7718 21.998Z" fill="#364259"/>
<path d="M27.1797 0H9.83473C9.3817 0 9.01441 0.367281 9.01441 0.820313V3.78536C8.41378 3.96752 7.8307 4.20098 7.27103 4.48399L6.1571 3.37958C5.83609 3.0613 5.31809 3.06272 4.99877 3.3827L1.65566 6.73345C1.50172 6.88778 1.41548 7.09707 1.41608 7.31516C1.41668 7.53315 1.50407 7.742 1.65889 7.89545L2.68636 8.9139C2.36906 9.49517 2.10859 10.103 1.90734 10.7313H0.820312C0.367281 10.7313 0 11.0986 0 11.5516V16.2904C0 16.7435 0.367281 17.1107 0.820312 17.1107H1.90739C2.10864 17.7391 2.36912 18.3469 2.68641 18.9282L1.65895 19.9466C1.50412 20.1001 1.41668 20.3089 1.41613 20.5269C1.41553 20.7449 1.50172 20.9542 1.65572 21.1086L4.99882 24.4594C5.15911 24.62 5.36922 24.7003 5.57955 24.7003C5.78829 24.7003 5.9972 24.621 6.15716 24.4624L7.27109 23.358C7.83076 23.641 8.41384 23.8745 9.01447 24.0566V27.0217C9.01447 27.4747 9.38175 27.842 9.83478 27.842H27.1797C27.6327 27.842 28 27.4747 28 27.0217V0.820313C28 0.367281 27.6327 0 27.1797 0ZM9.01441 18.7745C8.41553 18.3734 7.89359 17.8601 7.47387 17.2546C6.79476 16.2748 6.43584 15.1221 6.43584 13.9211C6.43584 12.72 6.79476 11.5674 7.47387 10.5876C7.89359 9.98206 8.41553 9.46876 9.01441 9.06763V18.7745ZM9.01441 7.18359C7.85794 7.73839 6.86673 8.58353 6.12549 9.653C5.2552 10.9086 4.79522 12.3845 4.79522 13.9211C4.79522 15.4577 5.2552 16.9336 6.12549 18.1892C6.86678 19.2586 7.85794 20.1038 9.01441 20.6586V22.3283C8.50347 22.1424 8.0098 21.9113 7.53862 21.6373C7.21804 21.4509 6.81215 21.5028 6.54866 21.7639L5.58266 22.7218L3.39845 20.5325L4.29368 19.6451C4.56673 19.3745 4.61519 18.9504 4.41016 18.6251C3.91398 17.8379 3.54736 16.9846 3.32052 16.089C3.22826 15.7251 2.90073 15.4702 2.5253 15.4702H1.64062V12.372H2.5253C2.90073 12.372 3.22826 12.1171 3.32052 11.7532C3.5473 10.8576 3.91398 10.0043 4.41016 9.21703C4.61519 8.89175 4.56673 8.4677 4.29368 8.19705L3.39845 7.30964L5.58266 5.12039L6.54866 6.07824C6.81204 6.33937 7.21788 6.39133 7.53862 6.20484C8.0098 5.93086 8.50352 5.69986 9.01441 5.51387V7.18359ZM26.3594 26.2015H10.655V1.64062H26.3594V26.2015Z" fill="#364259"/>
<path d="M13.7718 12.219H15.355V12.7444C15.355 13.1975 15.7223 13.5647 16.1754 13.5647C16.6284 13.5647 16.9957 13.1975 16.9957 12.7444V12.219H23.2426C23.6957 12.219 24.0629 11.8518 24.0629 11.3987C24.0629 10.9457 23.6957 10.5784 23.2426 10.5784H16.9957V10.053C16.9957 9.59995 16.6284 9.23267 16.1754 9.23267C15.7223 9.23267 15.355 9.59995 15.355 10.053V10.5784H13.7718C13.3188 10.5784 12.9515 10.9457 12.9515 11.3987C12.9515 11.8518 13.3188 12.219 13.7718 12.219Z" fill="#364259"/>
<path d="M13.7718 17.1085H20.0187V17.6339C20.0187 18.087 20.386 18.4542 20.839 18.4542C21.292 18.4542 21.6593 18.087 21.6593 17.6339V17.1085H23.2426C23.6957 17.1085 24.0629 16.7413 24.0629 16.2882C24.0629 15.8352 23.6957 15.4679 23.2426 15.4679H21.6593V14.9425C21.6593 14.4895 21.292 14.1222 20.839 14.1222C20.386 14.1222 20.0187 14.4895 20.0187 14.9425V15.4679H13.7718C13.3188 15.4679 12.9515 15.8352 12.9515 16.2882C12.9515 16.7413 13.3188 17.1085 13.7718 17.1085Z" fill="#364259"/>
</svg>
