<svg width="28" height="28" viewBox="0 0 28 28" fill="none" xmlns="http://www.w3.org/2000/svg">
<path d="M27.1797 0L0.820312 0.0113203C0.367281 0.0113203 0 0.378602 0 0.831633V18.7465C0 19.1995 0.367281 19.5668 0.820312 19.5668H5.40252L5.40236 21.9899C5.40236 22.1417 5.44447 22.2905 5.52398 22.4197L7.83677 26.1792C8.52748 27.302 9.77545 27.9995 11.0937 27.9995H19.847C22.0589 27.9995 23.8585 26.2 23.8585 23.9881V19.5667H27.1797C27.6327 19.5667 28 19.1995 28 18.7464V0.820312C28 0.367281 27.6327 0 27.1797 0ZM17.4811 1.65195H26.3594V10.1908H17.4811V1.65195ZM1.64062 17.9262V1.65195H5.40236V17.9262H1.64062ZM22.2178 23.9881C22.2178 25.2954 21.1543 26.3589 19.847 26.3589H11.0937C10.341 26.3589 9.6285 25.9607 9.23415 25.3197L7.04298 21.7579L7.04331 17.5757C7.04331 17.1145 7.41858 16.7392 7.87981 16.7392H8.96038L8.9606 19.2371C8.9606 19.2439 8.96066 19.2508 8.96082 19.2575V19.267C8.97673 19.8053 9.39126 20.0952 9.78113 20.0952C10.1731 20.095 10.5904 19.8047 10.6013 19.2666C10.6013 19.2659 10.6014 19.2652 10.6014 19.2643C10.6015 19.2585 10.6016 19.2526 10.6016 19.2468L10.6014 9.54127C10.6014 9.08004 10.9767 8.70483 11.4387 8.70483C11.8996 8.70483 12.2747 9.07966 12.2747 9.54029L12.2748 17.4952C12.2748 17.9482 12.6421 18.3155 13.0951 18.3155C13.5482 18.3155 13.9155 17.9482 13.9155 17.4952L13.9155 15.7614C13.9155 15.3 14.2909 14.9247 14.7523 14.9247C15.2138 14.9247 15.5892 15.3 15.5892 15.7615V18.5065C15.5892 18.9596 15.9565 19.3268 16.4095 19.3268C16.8626 19.3268 17.2298 18.9596 17.2298 18.5065V16.7729C17.2298 16.3114 17.6053 15.936 18.0667 15.936C18.5282 15.936 18.9036 16.3114 18.9036 16.7729V20.0236C18.9036 20.4766 19.2709 20.8439 19.7239 20.8439C20.177 20.8439 20.5442 20.4766 20.5442 20.0236V17.7842C20.5442 17.3228 20.9197 16.9473 21.3811 16.9473C21.8426 16.9473 22.218 17.3228 22.218 17.7842L22.2178 23.9881ZM23.8585 17.9262V17.7842C23.8585 16.4181 22.747 15.3066 21.381 15.3066C20.97 15.3066 20.582 15.4073 20.2404 15.5851C19.8191 14.8172 19.0026 14.2953 18.0666 14.2953C17.6556 14.2953 17.2676 14.3959 16.9261 14.5738C16.5048 13.8058 15.6884 13.284 14.7523 13.284C14.4587 13.284 14.1769 13.3353 13.9153 13.4294L13.9153 9.54012C13.9152 8.17485 12.8042 7.06415 11.4379 7.06415C10.0721 7.06415 8.96087 8.17534 8.96082 9.54116L8.96055 15.0986H7.87992C7.5863 15.0986 7.30461 15.1502 7.04304 15.2444V1.65195H15.8406V11.0111C15.8406 11.4641 16.2078 11.8314 16.6609 11.8314H26.3594V17.9262H23.8585Z" fill="#364259"/>
<path d="M23.4671 4.07467L21.1456 6.39616L20.2641 5.51465C19.9438 5.19434 19.4243 5.19434 19.104 5.51465C18.7836 5.83495 18.7836 6.35438 19.104 6.67473L20.5656 8.13631C20.7257 8.29649 20.9357 8.37661 21.1456 8.37661C21.3555 8.37661 21.5655 8.29649 21.7256 8.13631L24.6271 5.23476C24.9475 4.91445 24.9475 4.39503 24.6271 4.07467C24.3068 3.75437 23.7874 3.75437 23.4671 4.07467Z" fill="#364259"/>
<path d="M3.52149 8.88323C3.09241 8.88323 2.68133 9.26052 2.70118 9.70355C2.72109 10.148 3.06163 10.5239 3.52149 10.5239C3.95057 10.5239 4.36166 10.1466 4.3418 9.70355C4.3219 9.2591 3.98136 8.88323 3.52149 8.88323Z" fill="#364259"/>
</svg>
