<svg width="22" height="22" viewBox="0 0 22 22" fill="none" xmlns="http://www.w3.org/2000/svg">
<path d="M10.9998 13.0018C12.1053 13.0018 13.0016 12.1056 13.0016 11C13.0016 9.89442 12.1053 8.99818 10.9998 8.99818C9.89418 8.99818 8.99793 9.89442 8.99793 11C8.99793 12.1056 9.89418 13.0018 10.9998 13.0018Z" fill="#00835B"/>
<path d="M0.990648 11L10.9998 0.990892L21.0089 11L10.9998 21.0091L0.990648 11Z" stroke="#00835B" stroke-width="1.4"/>
<path d="M10.9998 13.0018C12.1053 13.0018 13.0016 12.1056 13.0016 11C13.0016 9.89442 12.1053 8.99818 10.9998 8.99818C9.89418 8.99818 8.99793 9.89442 8.99793 11C8.99793 12.1056 9.89418 13.0018 10.9998 13.0018Z" stroke="#00835B" stroke-width="1.4"/>
</svg>
