<svg width="27" height="27" viewBox="0 0 27 27" fill="none" xmlns="http://www.w3.org/2000/svg">
<path d="M26.2092 1.6074H15.8963C15.5056 0.664794 14.5767 0 13.4954 0C12.414 0 11.4851 0.664794 11.0943 1.6074H0.790744C0.354042 1.6074 0 1.96177 0 2.39888V22.1301C0 22.5672 0.354042 22.9216 0.790744 22.9216H8.16359V25.417H6.73867C6.30196 25.417 5.94792 25.7714 5.94792 26.2085C5.94792 26.6456 6.30196 27 6.73867 27H20.2521C20.6888 27 21.0428 26.6456 21.0428 26.2085C21.0428 25.7714 20.6888 25.417 20.2521 25.417H18.8272V22.9216H26.2093C26.646 22.9216 27 22.5672 27 22.1301V2.39888C26.9999 1.96177 26.6459 1.6074 26.2092 1.6074ZM13.4954 1.58297C14.0561 1.58297 14.5124 2.0396 14.5124 2.60092C14.5124 3.16224 14.0561 3.61888 13.4954 3.61888C12.9346 3.61888 12.4784 3.16224 12.4784 2.60092C12.4784 2.0396 12.9346 1.58297 13.4954 1.58297ZM17.2457 25.417H9.74507V22.9216H17.2457V25.417ZM25.4185 21.3386H1.58149V3.19037H10.965C11.2326 4.3414 12.2652 5.20184 13.4954 5.20184C14.7255 5.20184 15.7581 4.3414 16.0257 3.19037H25.4185V21.3386Z" fill="#25387D"/>
<path d="M4.60912 10.4428C4.76353 10.5974 4.9659 10.6747 5.16823 10.6747C5.37055 10.6747 5.57298 10.5974 5.72739 10.4428C6.03615 10.1338 6.03615 9.63259 5.72739 9.32349L5.15974 8.75531L5.68785 8.2267C5.99666 7.91765 5.99666 7.41648 5.68785 7.10738C5.37899 6.79828 4.8784 6.79828 4.56958 7.10738L3.48231 8.19562C3.33402 8.344 3.25068 8.54535 3.25068 8.75525C3.25068 8.96516 3.33402 9.16651 3.48231 9.31489L4.60912 10.4428Z" fill="#25387D"/>
<path d="M8.29599 8.79474L7.76788 9.32334C7.45907 9.63239 7.45907 10.1336 7.76788 10.4427C7.92234 10.5973 8.12466 10.6745 8.32704 10.6745C8.52936 10.6745 8.73179 10.5972 8.88615 10.4427L9.97342 9.35442C10.1217 9.20604 10.2051 9.00469 10.2051 8.79479C10.2051 8.58489 10.1217 8.38353 9.97342 8.23516L8.84661 7.10734C8.53785 6.7983 8.03715 6.7983 7.72834 7.10734C7.41958 7.41639 7.41958 7.91756 7.72834 8.22666L8.29599 8.79474Z" fill="#25387D"/>
<path d="M3.28702 13.6913C3.28702 14.1284 3.64107 14.4828 4.07777 14.4828H6.37066C6.80736 14.4828 7.16141 14.1284 7.16141 13.6913C7.16141 13.2542 6.80736 12.8998 6.37066 12.8998H4.07777C3.64101 12.8998 3.28702 13.2542 3.28702 13.6913Z" fill="#25387D"/>
<path d="M22.9492 16.0752H18.1313C17.6946 16.0752 17.3405 16.4296 17.3405 16.8667C17.3405 17.3038 17.6946 17.6582 18.1313 17.6582H22.9492C23.3859 17.6582 23.74 17.3038 23.74 16.8667C23.74 16.4296 23.3859 16.0752 22.9492 16.0752Z" fill="#25387D"/>
<path d="M15.1671 16.0752H4.07777C3.64107 16.0752 3.28702 16.4296 3.28702 16.8667C3.28702 17.3038 3.64107 17.6582 4.07777 17.6582H15.1672C15.6039 17.6582 15.9579 17.3038 15.9579 16.8667C15.9579 16.4296 15.6039 16.0752 15.1671 16.0752Z" fill="#25387D"/>
<path d="M22.9492 12.8998H9.41433C8.97763 12.8998 8.62359 13.2542 8.62359 13.6913C8.62359 14.1284 8.97763 14.4828 9.41433 14.4828H22.9492C23.3859 14.4828 23.74 14.1284 23.74 13.6913C23.74 13.2542 23.3859 12.8998 22.9492 12.8998Z" fill="#25387D"/>
<path d="M22.9492 9.73075H12.4889C12.0522 9.73075 11.6982 10.0851 11.6982 10.5222C11.6982 10.9593 12.0522 11.3137 12.4889 11.3137H22.9492C23.3859 11.3137 23.74 10.9593 23.74 10.5222C23.74 10.0851 23.3859 9.73075 22.9492 9.73075Z" fill="#25387D"/>
<path d="M17.9166 8.45853H22.9492C23.3859 8.45853 23.74 8.10415 23.74 7.66704C23.74 7.22993 23.3859 6.87556 22.9492 6.87556H17.9166C17.4799 6.87556 17.1258 7.22993 17.1258 7.66704C17.1258 8.10415 17.4798 8.45853 17.9166 8.45853Z" fill="#25387D"/>
<path d="M12.4889 8.45853H15.0449C15.4816 8.45853 15.8356 8.10415 15.8356 7.66704C15.8356 7.22993 15.4816 6.87556 15.0449 6.87556H12.4889C12.0522 6.87556 11.6982 7.22993 11.6982 7.66704C11.6982 8.10415 12.0522 8.45853 12.4889 8.45853Z" fill="#25387D"/>
</svg>
