<svg width="27" height="27" viewBox="0 0 27 27" fill="none" xmlns="http://www.w3.org/2000/svg">
<path d="M26.209 0H7.92461C7.48775 0 7.13359 0.354164 7.13359 0.791016V6.53474H4.35781C3.92096 6.53474 3.5668 6.8889 3.5668 7.32575V13.0695H0.791016C0.354164 13.0695 0 13.4237 0 13.8605V26.209C0 26.6458 0.354164 27 0.791016 27H19.0754C19.5122 27 19.8664 26.6458 19.8664 26.209V20.4652H22.6422C23.079 20.4652 23.4332 20.111 23.4332 19.6742V13.9304H26.209C26.6458 13.9304 27 13.5763 27 13.1394V0.791016C27 0.354164 26.6458 0 26.209 0ZM25.418 1.58203V3.18263H8.71562V1.58203H25.418ZM21.8512 8.11677V9.59006H5.14883V8.11677H21.8512ZM18.2844 14.6516V16.1673H1.58203V14.6516H18.2844ZM18.2844 25.418H1.58203V17.7493H18.2844V25.418ZM21.8512 18.8832H19.8664V13.8605C19.8664 13.4237 19.5122 13.0695 19.0754 13.0695H5.14883V11.1721H21.8512V18.8832ZM23.4332 12.3484V7.32575C23.4332 6.8889 23.079 6.53474 22.6422 6.53474H8.71562V4.76466H25.418V12.3484L23.4332 12.3484Z" fill="#25387D"/>
<path d="M15.4508 22.1941H4.23879C3.80194 22.1941 3.44777 22.5483 3.44777 22.9851C3.44777 23.422 3.80194 23.7761 4.23879 23.7761H15.4508C15.8877 23.7761 16.2418 23.422 16.2418 22.9851C16.2418 22.5483 15.8877 22.1941 15.4508 22.1941Z" fill="#25387D"/>
<path d="M15.4508 19.1605H4.23879C3.80194 19.1605 3.44777 19.5146 3.44777 19.9515C3.44777 20.3883 3.80194 20.7425 4.23879 20.7425H15.4508C15.8877 20.7425 16.2418 20.3883 16.2418 19.9515C16.2418 19.5146 15.8877 19.1605 15.4508 19.1605Z" fill="#25387D"/>
</svg>
