<svg width="28" height="28" viewBox="0 0 28 28" fill="none" xmlns="http://www.w3.org/2000/svg">
<path d="M7.17024 11.398H20.8213C21.2744 11.398 21.6416 11.0307 21.6416 10.5777C21.6416 10.1246 21.2744 9.75734 20.8213 9.75734H20.6088V0.820312C20.6088 0.367281 20.2415 0 19.7885 0H8.20301C7.74998 0 7.3827 0.367281 7.3827 0.820312V9.75734H7.17024C6.71721 9.75734 6.34993 10.1246 6.34993 10.5777C6.34993 11.0307 6.71721 11.398 7.17024 11.398ZM9.02332 1.64062H18.9682V9.75734H9.02332V1.64062Z" fill="#364259"/>
<path d="M27.1711 13.1677H21.8953C21.8882 13.1675 21.8813 13.1666 21.8742 13.1666C21.8592 13.1666 21.8445 13.1674 21.8295 13.1677H0.820417C0.378323 13.1595 -0.00727851 13.5478 0.000104304 13.9881C0.000760554 17.5712 1.40656 20.9981 3.95855 23.6376C5.16485 24.8852 6.56375 25.8962 8.11649 26.6424C9.6997 27.4032 11.3622 27.8493 13.0578 27.9681C13.3628 27.9896 13.665 27.9999 13.9655 27.9999C18.7337 27.9996 22.8973 25.3714 25.3211 22.1828C25.3562 22.1444 25.3875 22.1029 25.4149 22.0584C25.9066 21.3962 26.3235 20.7112 26.6552 20.0216C26.9261 19.4582 27.153 18.8659 27.3297 18.2609C27.7688 16.8839 27.9914 15.4464 27.9914 13.988C27.9915 13.5349 27.6242 13.1677 27.1711 13.1677ZM10.8435 25.9215C8.72336 25.3239 6.72213 24.1356 5.13799 22.4972C3.07956 20.3682 1.86577 17.664 1.66949 14.8083H6.4908C8.48744 14.8083 10.1118 16.4327 10.1118 18.4293C10.1118 19.1077 9.92238 19.7696 9.56407 20.3435C9.42938 20.5592 9.40231 20.8251 9.49079 21.0635C9.57928 21.3018 9.77336 21.4857 10.0161 21.5613C11.0161 21.8724 11.688 22.786 11.688 23.8346C11.6881 24.5975 11.3333 25.4451 10.8435 25.9215ZM20.5191 24.389C18.9268 25.3985 16.3594 26.5552 13.1725 26.3316C12.9919 26.319 12.8114 26.3017 12.6312 26.2802C13.0671 25.5633 13.3288 24.6912 13.3288 23.8346C13.3288 22.3894 12.5728 21.0961 11.3765 20.3833C11.624 19.7651 11.7526 19.1028 11.7526 18.4294C11.7526 17.0277 11.2015 15.7524 10.3049 14.8083H18.882C18.5846 15.2727 18.3917 15.8102 18.3382 16.3877C17.0265 16.7427 16.0586 17.9434 16.0586 19.3658C16.0586 21.0667 17.4424 22.4505 19.1433 22.4505H22.9205C22.204 23.1766 21.3921 23.8357 20.5191 24.389ZM25.7638 17.7716L25.7574 17.7923C25.6056 18.3144 25.4102 18.8252 25.1768 19.3106C24.932 19.8196 24.6344 20.322 24.2928 20.8098H19.1432C18.3469 20.8098 17.6992 20.162 17.6992 19.3658C17.6992 18.5696 18.347 17.9218 19.1432 17.9218C19.5963 17.9218 19.9636 17.5545 19.9636 17.1014V16.7178C19.9636 15.6785 20.798 14.8308 21.8321 14.8083H26.3236C26.2577 15.8184 26.0706 16.812 25.7638 17.7716Z" fill="#364259"/>
</svg>
