<svg width="28" height="27" viewBox="0 0 28 27" fill="none" xmlns="http://www.w3.org/2000/svg">
<path d="M27.1797 11.127C27.6327 11.127 28 10.7728 28 10.3359C28 9.89909 27.6327 9.54492 27.1797 9.54492H24.6641V7.96289H27.1797C27.6327 7.96289 28 7.60873 28 7.17188C28 6.73502 27.6327 6.38086 27.1797 6.38086H24.6641V5.58984C24.6641 4.28135 23.5601 3.2168 22.2031 3.2168H21.3828V0.791016C21.3828 0.354164 21.0155 0 20.5625 0C20.1095 0 19.7422 0.354164 19.7422 0.791016V3.2168H18.1016V0.791016C18.1016 0.354164 17.7343 0 17.2812 0C16.8282 0 16.4609 0.354164 16.4609 0.791016V3.2168H14.8203V0.791016C14.8203 0.354164 14.453 0 14 0C13.547 0 13.1797 0.354164 13.1797 0.791016V3.2168H11.5391V0.791016C11.5391 0.354164 11.1718 0 10.7188 0C10.2657 0 9.89844 0.354164 9.89844 0.791016V3.2168H8.25781V0.791016C8.25781 0.354164 7.89053 0 7.4375 0C6.98447 0 6.61719 0.354164 6.61719 0.791016V3.2168H5.79688C4.43991 3.2168 3.33594 4.28135 3.33594 5.58984V6.38086H0.820312C0.367281 6.38086 0 6.73502 0 7.17188C0 7.60873 0.367281 7.96289 0.820312 7.96289H3.33594V9.54492H0.820312C0.367281 9.54492 0 9.89909 0 10.3359C0 10.7728 0.367281 11.127 0.820312 11.127H3.33594V12.709H0.820312C0.367281 12.709 0 13.0631 0 13.5C0 13.9369 0.367281 14.291 0.820312 14.291H3.33594V15.873H0.820312C0.367281 15.873 0 16.2272 0 16.6641C0 17.1009 0.367281 17.4551 0.820312 17.4551H3.33594V19.0371H0.820312C0.367281 19.0371 0 19.3913 0 19.8281C0 20.265 0.367281 20.6191 0.820312 20.6191H3.33594V21.4102C3.33594 22.7187 4.43991 23.7832 5.79688 23.7832H6.61719V26.209C6.61719 26.6458 6.98447 27 7.4375 27C7.89053 27 8.25781 26.6458 8.25781 26.209V23.7832H9.89844V26.209C9.89844 26.6458 10.2657 27 10.7188 27C11.1718 27 11.5391 26.6458 11.5391 26.209V23.7832H13.1797V26.209C13.1797 26.6458 13.547 27 14 27C14.453 27 14.8203 26.6458 14.8203 26.209V23.7832H16.4609V26.209C16.4609 26.6458 16.8282 27 17.2812 27C17.7343 27 18.1016 26.6458 18.1016 26.209V23.7832H19.7422V26.209C19.7422 26.6458 20.1095 27 20.5625 27C21.0155 27 21.3828 26.6458 21.3828 26.209V23.7832H22.2031C23.5601 23.7832 24.6641 22.7187 24.6641 21.4102V20.6191H27.1797C27.6327 20.6191 28 20.265 28 19.8281C28 19.3913 27.6327 19.0371 27.1797 19.0371H24.6641V17.4551H27.1797C27.6327 17.4551 28 17.1009 28 16.6641C28 16.2272 27.6327 15.873 27.1797 15.873H24.6641V14.291H27.1797C27.6327 14.291 28 13.9369 28 13.5C28 13.0631 27.6327 12.709 27.1797 12.709H24.6641V11.127H27.1797ZM23.0234 21.4102C23.0234 21.8463 22.6554 22.2012 22.2031 22.2012H5.79688C5.34455 22.2012 4.97656 21.8463 4.97656 21.4102V5.58984C4.97656 5.15368 5.34455 4.79883 5.79688 4.79883H22.2031C22.6554 4.79883 23.0234 5.15368 23.0234 5.58984V21.4102Z" fill="#25387D"/>
<path d="M7.4375 7.96289C7.89055 7.96289 8.25781 7.60874 8.25781 7.17188C8.25781 6.73501 7.89055 6.38086 7.4375 6.38086C6.98445 6.38086 6.61719 6.73501 6.61719 7.17188C6.61719 7.60874 6.98445 7.96289 7.4375 7.96289Z" fill="#25387D"/>
<path d="M7.4375 20.6191C7.89055 20.6191 8.25781 20.265 8.25781 19.8281C8.25781 19.3913 7.89055 19.0371 7.4375 19.0371C6.98445 19.0371 6.61719 19.3913 6.61719 19.8281C6.61719 20.265 6.98445 20.6191 7.4375 20.6191Z" fill="#25387D"/>
<path d="M20.5625 20.6191C21.0155 20.6191 21.3828 20.265 21.3828 19.8281C21.3828 19.3913 21.0155 19.0371 20.5625 19.0371C20.1095 19.0371 19.7422 19.3913 19.7422 19.8281C19.7422 20.265 20.1095 20.6191 20.5625 20.6191Z" fill="#25387D"/>
<path d="M20.5625 7.96289C21.0155 7.96289 21.3828 7.60874 21.3828 7.17188C21.3828 6.73501 21.0155 6.38086 20.5625 6.38086C20.1095 6.38086 19.7422 6.73501 19.7422 7.17188C19.7422 7.60874 20.1095 7.96289 20.5625 7.96289Z" fill="#25387D"/>
<path d="M20.2034 14.2134L19.7204 13.9446C19.7485 13.6506 19.7504 13.3701 19.7204 13.0555L20.2034 12.7866C20.5957 12.5681 20.7301 12.0844 20.5035 11.7061L18.8629 8.9659C18.6366 8.588 18.1346 8.45791 17.7424 8.67639L17.2425 8.95467C16.9935 8.78876 16.7326 8.64285 16.4609 8.51771V7.96289C16.4609 7.52604 16.0937 7.17188 15.6406 7.17188H12.3594C11.9063 7.17188 11.5391 7.52604 11.5391 7.96289V8.51766C11.2674 8.6428 11.0065 8.78871 10.7575 8.95461L10.2576 8.67633C9.86568 8.45812 9.36365 8.58748 9.13708 8.96585L7.49645 11.706C7.26988 12.0843 7.4043 12.5681 7.79663 12.7866L8.27963 13.0554C8.25152 13.3494 8.24955 13.6299 8.27963 13.9445L7.79663 14.2134C7.4043 14.4319 7.26988 14.9156 7.49645 15.2939L9.13708 18.0341C9.36343 18.4122 9.86535 18.5421 10.2576 18.3236L10.7575 18.0453C11.0065 18.2112 11.2674 18.3572 11.5391 18.4823V19.0371C11.5391 19.474 11.9063 19.8281 12.3594 19.8281H15.6406C16.0937 19.8281 16.4609 19.474 16.4609 19.0371V18.4823C16.7326 18.3572 16.9935 18.2113 17.2425 18.0454L17.7424 18.3237C18.1344 18.5419 18.6364 18.4125 18.8629 18.0342L20.5035 15.294C20.7301 14.9157 20.5956 14.4319 20.2034 14.2134ZM18.025 12.7803C18.127 13.314 18.127 13.686 18.025 14.2197C17.9621 14.5489 18.1209 14.8807 18.4215 15.0482L18.6726 15.188L17.8523 16.5581L17.5885 16.4112C17.2877 16.2437 16.9102 16.277 16.646 16.4945C16.2632 16.8094 15.8325 17.0502 15.3659 17.2101C15.0389 17.3222 14.8204 17.6207 14.8204 17.9554V18.2461H13.1797V17.9555C13.1797 17.6208 12.9613 17.3223 12.6342 17.2102C12.1676 17.0502 11.7369 16.8094 11.3542 16.4946C11.09 16.2772 10.7125 16.2437 10.4116 16.4113L10.1478 16.5581L9.3275 15.188L9.57862 15.0482C9.87924 14.8807 10.0381 14.5489 9.97511 14.2197C9.87312 13.686 9.87312 13.314 9.97511 12.7803C10.0381 12.4511 9.87924 12.1193 9.57862 11.9518L9.3275 11.812L10.1478 10.4419L10.4116 10.5887C10.7124 10.7562 11.0899 10.7228 11.3542 10.5055C11.737 10.1905 12.1676 9.94982 12.6342 9.78987C12.9612 9.67776 13.1797 9.37923 13.1797 9.04453V8.75391H14.8204V9.04458C14.8204 9.37928 15.0388 9.67781 15.3659 9.78993C15.8325 9.94982 16.2631 10.1906 16.646 10.5055C16.9103 10.7229 17.2879 10.7563 17.5885 10.5888L17.8523 10.4419L18.6726 11.812L18.4215 11.9518C18.1209 12.1193 17.962 12.4511 18.025 12.7803Z" fill="#25387D"/>
<path d="M14 11.127C12.643 11.127 11.5391 12.1915 11.5391 13.5C11.5391 14.8085 12.643 15.873 14 15.873C15.357 15.873 16.4609 14.8085 16.4609 13.5C16.4609 12.1915 15.357 11.127 14 11.127ZM14 14.291C13.5477 14.291 13.1797 13.9362 13.1797 13.5C13.1797 13.0638 13.5477 12.709 14 12.709C14.4523 12.709 14.8203 13.0638 14.8203 13.5C14.8203 13.9362 14.4523 14.291 14 14.291Z" fill="#25387D"/>
</svg>
