<svg width="28" height="28" viewBox="0 0 28 28" fill="none" xmlns="http://www.w3.org/2000/svg">
<path d="M27.1797 10.4352H25.8253C25.5814 9.65223 25.2574 8.89651 24.8571 8.17698L26.1169 6.9283C26.2718 6.77485 26.3591 6.566 26.3597 6.34802C26.3603 6.13003 26.2741 5.92069 26.1201 5.76636L22.2478 1.88502C21.9285 1.56494 21.4105 1.56368 21.0895 1.88191L19.7325 3.22744C19.037 2.86918 18.3096 2.57764 17.5586 2.35621V0.820312C17.5586 0.367281 17.1913 0 16.7383 0H11.2618C10.8088 0 10.4415 0.367281 10.4415 0.820312V2.35616C9.69046 2.57759 8.96295 2.86913 8.26755 3.22738L6.91053 1.88185C6.58952 1.56357 6.07152 1.56494 5.75225 1.88497L1.87988 5.7663C1.72588 5.92063 1.63964 6.12992 1.6403 6.34796C1.64095 6.566 1.72829 6.7748 1.88311 6.92825L3.14295 8.17693C2.74263 8.89645 2.41855 9.65218 2.17465 10.4351H0.820312C0.367281 10.4351 0 10.8024 0 11.2555V16.7444C0 17.1975 0.367281 17.5647 0.820312 17.5647H2.17465C2.41855 18.3477 2.74258 19.1034 3.14295 19.823L1.88311 21.0716C1.72823 21.2251 1.6409 21.4339 1.6403 21.6519C1.6397 21.8699 1.72588 22.0793 1.87988 22.2336L5.75225 26.1149C6.07152 26.4349 6.58952 26.4362 6.91053 26.118L8.26755 24.7725C8.96295 25.1308 9.69046 25.4223 10.4415 25.6437V27.1797C10.4415 27.6327 10.8088 28 11.2618 28H16.7382C17.1912 28 17.5585 27.6327 17.5585 27.1797V25.6438C18.3095 25.4224 19.037 25.1309 19.7325 24.7726L21.0894 26.1181C21.4104 26.4364 21.9284 26.4351 22.2477 26.115L26.1201 22.2337C26.2741 22.0794 26.3603 21.8701 26.3596 21.6521C26.359 21.4341 26.2717 21.2253 26.1168 21.0718L24.857 19.8231C25.2573 19.1035 25.5814 18.3478 25.8253 17.5649H27.1797C27.6327 17.5649 28 17.1976 28 16.7446V11.2556C28 10.8025 27.6327 10.4352 27.1797 10.4352ZM26.3594 15.9242H25.2048C24.8293 15.9242 24.5019 16.1791 24.4096 16.543C24.1434 17.5936 23.7134 18.5945 23.1314 19.518C22.9264 19.8433 22.9748 20.2674 23.2479 20.538L24.3774 21.6575L21.6639 24.3772L20.453 23.1766C20.1896 22.9155 19.7838 22.8635 19.4631 23.05C18.5536 23.5788 17.5727 23.9712 16.5476 24.2159C16.1784 24.3041 15.9178 24.6341 15.9178 25.0138V26.3594H12.0821V25.0138C12.0821 24.6342 11.8215 24.3041 11.4523 24.216C10.4272 23.9712 9.44634 23.5789 8.53688 23.0501C8.2162 22.8635 7.81036 22.9155 7.54693 23.1767L6.33604 24.3773L3.62255 21.6576L4.75207 20.5381C5.02512 20.2674 5.07358 19.8434 4.86855 19.5181C4.28652 18.5946 3.85651 17.5937 3.59034 16.5431C3.49814 16.1792 3.17062 15.9243 2.79513 15.9243H1.64062V12.0759H2.79519C3.17067 12.0759 3.49814 11.821 3.5904 11.4571C3.85656 10.4065 4.28657 9.40559 4.86861 8.48209C5.07363 8.15681 5.02518 7.73276 4.75213 7.46211L3.62261 6.34255L6.33609 3.62277L7.54698 4.82344C7.81041 5.08462 8.21625 5.13663 8.53694 4.95004C9.44639 4.42121 10.4273 4.02894 11.4523 3.78416C11.8216 3.696 12.0821 3.36596 12.0821 2.98627V1.64062H15.9179V2.98616C15.9179 3.3658 16.1784 3.69589 16.5477 3.78405C17.5727 4.02883 18.5536 4.4211 19.4631 4.94993C19.7838 5.13641 20.1897 5.08446 20.4531 4.82333L21.664 3.62272L24.3774 6.34249L23.2479 7.46205C22.9748 7.7327 22.9264 8.15675 23.1314 8.48203C23.7134 9.40543 24.1435 10.4064 24.4097 11.457C24.5019 11.8209 24.8294 12.0758 25.2049 12.0758H26.3594V15.9242Z" fill="#364259"/>
<path d="M15.9294 5.9494C15.6806 5.87267 15.4101 5.91861 15.2006 6.07332C14.991 6.22798 14.8674 6.47292 14.8674 6.73329V10.4836L13.9989 11.1612L13.125 10.4826V6.73575C13.125 6.47511 13.0011 6.23 12.7914 6.0754C12.5815 5.92074 12.3109 5.87497 12.0618 5.95219C10.7564 6.35671 9.58437 7.18484 8.76154 8.2839C7.90995 9.42134 7.45987 10.7755 7.45987 12.2C7.45987 14.1914 8.36981 16.0693 9.91419 17.3065V21.2667C9.91419 21.7197 10.2815 22.087 10.7345 22.087H17.2654C17.7185 22.087 18.0858 21.7197 18.0858 21.2667V17.3065C19.6301 16.0693 20.5401 14.1914 20.5401 12.2C20.5401 10.7739 20.089 9.4185 19.2358 8.28029C18.4112 7.18041 17.237 6.35261 15.9294 5.9494ZM16.7966 16.2231C16.5764 16.3765 16.4451 16.6278 16.4451 16.8962V20.4464H11.5548V16.8962C11.5548 16.6278 11.4236 16.3765 11.2034 16.2231C9.88663 15.3058 9.10049 13.8018 9.10049 12.2C9.10049 11.1328 9.43742 10.1187 10.0749 9.26723C10.4572 8.75651 10.9399 8.32388 11.4843 7.99657V10.8842C11.4843 11.1375 11.6014 11.3767 11.8015 11.5321L13.4968 12.8486C13.7933 13.0788 14.2084 13.0785 14.5045 12.8475L16.1922 11.531C16.3915 11.3755 16.508 11.1369 16.508 10.8842V7.99187C17.0545 8.31906 17.5391 8.75241 17.923 9.26445C18.5618 10.1165 18.8994 11.1316 18.8994 12.2001C18.8995 13.8018 18.1133 15.3057 16.7966 16.2231Z" fill="#364259"/>
</svg>
