<svg width="22" height="22" viewBox="0 0 22 22" fill="none" xmlns="http://www.w3.org/2000/svg">
<path d="M6.43103 4.14629H15.569M4.14654 6.43078V15.5687M6.43103 6.43078L15.569 15.5687M7.57327 4.14629C7.57327 6.03882 6.03907 7.57302 4.14654 7.57302C2.25401 7.57302 0.719814 6.03882 0.719814 4.14629C0.719814 2.25376 2.25401 0.719563 4.14654 0.719563C6.03907 0.719563 7.57327 2.25376 7.57327 4.14629ZM21.2802 4.14629C21.2802 6.03882 19.746 7.57302 17.8535 7.57302C15.9609 7.57302 14.4267 6.03882 14.4267 4.14629C14.4267 2.25376 15.9609 0.719563 17.8535 0.719563C19.746 0.719563 21.2802 2.25376 21.2802 4.14629ZM7.57327 17.8532C7.57327 19.7457 6.03907 21.2799 4.14654 21.2799C2.25401 21.2799 0.719814 19.7457 0.719814 17.8532C0.719814 15.9607 2.25401 14.4265 4.14654 14.4265C6.03907 14.4265 7.57327 15.9607 7.57327 17.8532ZM21.2802 17.8532C21.2802 19.7457 19.746 21.2799 17.8535 21.2799C15.9609 21.2799 14.4267 19.7457 14.4267 17.8532C14.4267 15.9607 15.9609 14.4265 17.8535 14.4265C19.746 14.4265 21.2802 15.9607 21.2802 17.8532Z" stroke="#00835B" stroke-width="1.4"/>
</svg>
