<svg width="29" height="29" viewBox="0 0 29 29" fill="none" xmlns="http://www.w3.org/2000/svg">
<path d="M28.1504 27.3008H28.0885V22.2137C28.0885 21.7445 27.7081 21.3641 27.2389 21.3641H23.4436V18.5595C23.4436 18.0903 23.0632 17.7099 22.594 17.7099H15.2674V15.3632H22.5452C25.2051 15.3632 27.369 13.1992 27.369 10.5395C27.369 8.48641 25.5905 6.74607 23.6885 6.04491C23.5711 4.51448 22.9211 3.08521 21.8218 1.96543C20.577 0.697359 18.9231 0 17.1651 0C17.1577 0 17.15 0 17.1426 0C15.8948 0 14.6804 0.351795 13.631 1.01744C12.8789 1.49441 12.2346 2.11632 11.7337 2.84342C11.1441 2.549 10.4893 2.3921 9.82273 2.3921C8.70408 2.3921 7.52329 2.81906 6.58306 3.56349C5.74698 4.22545 5.20561 5.04894 5.01383 5.93231C4.15029 6.20085 3.37182 6.71084 2.77709 7.40638C2.03159 8.27831 1.62105 9.39096 1.62105 10.5394C1.62105 13.1992 3.78495 15.3631 6.4448 15.3631H13.5683V17.7098H6.40605C5.93684 17.7098 5.55645 18.0902 5.55645 18.5594V21.3641H1.81777C1.34856 21.3641 0.968158 21.7444 0.968158 22.2137V27.3008H0.849609C0.380398 27.3008 0 27.6812 0 28.1504C0 28.6196 0.380398 29 0.849609 29H11.9624C12.4316 29 12.812 28.6196 12.812 28.1504C12.812 27.6812 12.4316 27.3008 11.9624 27.3008H11.8438V22.2137C11.8438 21.7445 11.4634 21.3641 10.9942 21.3641H7.25561V19.4091H21.7444V21.3641H17.9491C17.4799 21.3641 17.0995 21.7445 17.0995 22.2137V27.3008H17.0376C16.5683 27.3008 16.1879 27.6812 16.1879 28.1504C16.1879 28.6196 16.5683 29 17.0376 29H28.1504C28.6196 29 29 28.6196 29 28.1504C29 27.6812 28.6196 27.3008 28.1504 27.3008ZM10.1446 23.0633V27.3008H2.66738V23.0633H10.1446ZM8.83718 13.664V12.4277L9.74134 11.5236C10.043 11.6617 10.3779 11.7393 10.7307 11.7393C12.0463 11.7393 13.1167 10.6689 13.1167 9.35329C13.1167 8.0377 12.0463 6.96736 10.7307 6.96736C9.41509 6.96736 8.34475 8.0377 8.34475 9.35329C8.34475 9.69512 8.41753 10.0201 8.54758 10.3143L7.38684 11.475C7.22751 11.6343 7.13796 11.8504 7.13796 12.0757V13.6639H6.44474C4.7219 13.6639 3.32022 12.2622 3.32022 10.5394C3.32022 9.0058 4.41599 7.70986 5.92574 7.45798C6.33101 7.39035 6.62984 7.04241 6.63545 6.6316C6.6542 5.26356 8.40366 4.09132 9.82267 4.09132C10.4245 4.09132 11.01 4.30338 11.4715 4.68848C11.6714 4.85523 11.9367 4.92122 12.1914 4.86741C12.4462 4.8136 12.6622 4.646 12.7775 4.41259C13.4765 2.99838 14.779 2.03697 16.2929 1.77274V5.35656C16.2929 5.82577 16.6733 6.20617 17.1425 6.20617C17.6117 6.20617 17.9921 5.82577 17.9921 5.35656V1.77217C18.9775 1.94385 19.8861 2.41923 20.6092 3.15585C21.5395 4.10339 22.036 5.34755 22.0074 6.65901C21.9987 7.05793 22.2687 7.40916 22.6565 7.50324C23.8064 7.78225 25.0199 8.65542 25.4787 9.68991H21.1724L20.4107 8.9282C20.079 8.5964 19.541 8.59646 19.2092 8.9282C18.8774 9.26 18.8774 9.79792 19.2092 10.1297L20.2197 11.1402C20.379 11.2996 20.5952 11.3891 20.8205 11.3891H25.5514C25.1803 12.7002 23.9736 13.664 22.5452 13.664L8.83718 13.664ZM10.044 9.35329C10.044 8.97465 10.3521 8.66658 10.7307 8.66658C11.1094 8.66658 11.4175 8.97465 11.4175 9.35329C11.4175 9.73199 11.1094 10.0401 10.7307 10.0401C10.5524 10.0401 10.3903 9.97113 10.268 9.85926C10.258 9.84805 10.2485 9.83649 10.2377 9.82573C10.2303 9.81831 10.2223 9.81197 10.2147 9.80495C10.1088 9.68407 10.044 9.52627 10.044 9.35329ZM26.3893 27.3008H18.7987V23.0633H26.3893L26.3893 27.3008Z" fill="#25387D"/>
</svg>
