<svg width="16" height="16" viewBox="0 0 16 16" fill="none" xmlns="http://www.w3.org/2000/svg">
<path d="M15.9294 8.25814C15.7649 7.76773 15.3375 7.41261 14.8253 7.34074L9.41632 6.58398L8.65886 1.17467C8.58735 0.662415 8.23187 0.235068 7.74181 0.0705404C7.2514 -0.0936343 6.71026 0.0339006 6.34456 0.399595L0.399392 6.34477C0.096761 6.6474 -0.0462754 7.07404 0.0132643 7.49786L0.913055 13.926C0.997256 14.5288 1.47146 15.003 2.07426 15.0873L8.50209 15.9867C8.56515 15.9955 8.62821 16.0001 8.69092 16.0001C9.04992 16.0001 9.39765 15.8581 9.65519 15.6006L15.6004 9.65539C15.9661 9.28969 16.0936 8.74855 15.9294 8.25814Z" fill="#FFBC36"/>
</svg>
