<svg width="24" height="24" viewBox="0 0 24 24" fill="none" xmlns="http://www.w3.org/2000/svg">
<path d="M18.3027 12.6982H20.0243C20.3117 13.484 21.0665 14.0462 21.95 14.0462C23.0804 14.0462 24 13.1261 24 11.9951C24 10.8641 23.0804 9.94402 21.95 9.94402C21.0664 9.94402 20.3116 10.5063 20.0243 11.292H18.3027V6.68817L21.0822 3.90872C21.3459 4.03256 21.6399 4.10217 21.95 4.10217C23.0804 4.10217 24 3.18206 24 2.05111C24 0.920109 23.0804 0 21.9501 0C20.8198 0 19.9002 0.920109 19.9002 2.05111C19.9002 2.35847 19.9686 2.65003 20.0902 2.91202L17.6381 5.36409H12.7031V3.9758C13.4888 3.68836 14.0511 2.93358 14.0511 2.04998C14.0511 0.919594 13.131 0 12 0C10.869 0 9.94889 0.919594 9.94889 2.04994C9.94889 2.93353 10.5112 3.68836 11.2969 3.97575V5.36409H6.35845L3.90877 2.91441C4.03111 2.65181 4.09987 2.35941 4.09987 2.05111C4.09987 0.920109 3.18028 0 2.04994 0C0.919594 0 0 0.920109 0 2.05111C0 3.18206 0.919594 4.10217 2.04994 4.10217C2.35908 4.10217 2.65228 4.03294 2.91539 3.9098L5.69723 6.69169V11.292H3.97575C3.68831 10.5063 2.93353 9.94402 2.04998 9.94402C0.919594 9.94402 0 10.8641 0 11.9951C0 13.1261 0.919594 14.0462 2.04994 14.0462C2.93353 14.0462 3.68831 13.484 3.9757 12.6982H5.69723V17.3048L2.9197 20.0824C2.65547 19.958 2.36077 19.8881 2.04989 19.8881C0.919594 19.888 0 20.8081 0 21.9391C0 23.0701 0.919594 23.9902 2.04994 23.9902C3.18023 23.9902 4.09983 23.0701 4.09983 21.9391C4.09983 21.6325 4.03177 21.3416 3.91069 21.0801L5.83908 19.1517H11.2969V20.0243C10.5112 20.3117 9.94889 21.0665 9.94889 21.95C9.94889 23.0804 10.869 24 12 24C13.131 24 14.0511 23.0804 14.0511 21.9501C14.0511 21.0665 13.4888 20.3117 12.7031 20.0243V19.1517H18.1573L20.0881 21.0825C19.9678 21.3434 19.9001 21.6334 19.9001 21.9391C19.9001 23.0701 20.8197 23.9902 21.95 23.9902C23.0804 23.9902 24 23.0701 24 21.9391C24 20.8082 23.0804 19.8881 21.95 19.8881C21.6383 19.8881 21.3427 19.9584 21.0778 20.0835L18.3027 17.3084V12.6982H18.3027ZM21.9501 11.3503C22.305 11.3503 22.5938 11.6395 22.5938 11.9951C22.5938 12.3507 22.305 12.64 21.9501 12.64C21.5952 12.64 21.3064 12.3507 21.3064 11.9951C21.3064 11.6395 21.5951 11.3503 21.9501 11.3503ZM12 1.40625C12.3556 1.40625 12.6449 1.695 12.6449 2.04994C12.6449 2.40488 12.3556 2.69367 12 2.69367C11.6444 2.69367 11.3551 2.40492 11.3551 2.04998C11.3551 1.69505 11.6444 1.40625 12 1.40625ZM2.04994 12.6399C1.695 12.6399 1.40625 12.3507 1.40625 11.9951C1.40625 11.6395 1.695 11.3502 2.04994 11.3502C2.40483 11.3502 2.69358 11.6395 2.69358 11.9951C2.69358 12.3507 2.40488 12.6399 2.04994 12.6399ZM12 22.5938C11.6444 22.5938 11.3551 22.305 11.3551 21.9501C11.3551 21.5952 11.6444 21.3064 12 21.3064C12.3556 21.3064 12.6449 21.5952 12.6449 21.9501C12.6449 22.305 12.3556 22.5938 12 22.5938ZM21.9501 1.40625C22.305 1.40625 22.5938 1.69552 22.5938 2.05111C22.5938 2.40666 22.305 2.69592 21.9501 2.69592C21.5952 2.69592 21.3064 2.40666 21.3064 2.05111C21.3064 1.69552 21.5951 1.40625 21.9501 1.40625ZM16.8965 9.49847H15.4309V6.77039H16.8965V9.49847ZM7.10353 13.6111V10.9047H8.50978V12.2172H9.91603V10.9047H14.0246V13.6111H7.10353ZM15.4309 10.9047H16.8965V13.6111H15.4309V10.9047ZM1.40625 2.05111C1.40625 1.69552 1.695 1.40625 2.04994 1.40625C2.40483 1.40625 2.69358 1.69552 2.69358 2.05111C2.69358 2.40666 2.40483 2.69592 2.04994 2.69592C1.695 2.69592 1.40625 2.40666 1.40625 2.05111ZM7.10353 6.77039H8.50978V8.08289H9.91603V6.77039H14.0246V9.49847H7.10353V6.77039ZM2.04994 22.584C1.695 22.584 1.40625 22.2947 1.40625 21.9391C1.40625 21.5835 1.695 21.2943 2.04994 21.2943C2.40483 21.2943 2.69358 21.5835 2.69358 21.9391C2.69362 22.2947 2.40488 22.584 2.04994 22.584ZM7.10353 15.0173H8.50978V16.3515H9.91603V15.0173H14.0246V17.7454H7.10353V15.0173ZM22.5938 21.9391C22.5938 22.2947 22.305 22.584 21.9501 22.584C21.5952 22.584 21.3064 22.2947 21.3064 21.9391C21.3064 21.5835 21.5952 21.2943 21.9501 21.2943C22.305 21.2943 22.5938 21.5835 22.5938 21.9391ZM16.8965 17.7454H15.4309V15.0173H16.8965V17.7454Z" fill="#0019A0"/>
</svg>
