<svg width="24" height="24" viewBox="0 0 24 24" fill="none" xmlns="http://www.w3.org/2000/svg">
<path d="M23.2969 0H8.42977C8.04145 0 7.72664 0.314813 7.72664 0.703125V3.24459C7.21181 3.40073 6.71203 3.60084 6.23231 3.84342L5.27752 2.89678C5.00236 2.62397 4.55836 2.62519 4.28466 2.89945L1.41914 5.77153C1.28719 5.90381 1.21327 6.0832 1.21378 6.27014C1.2143 6.45698 1.2892 6.636 1.42191 6.76753L2.30259 7.64048C2.03063 8.13872 1.80736 8.65969 1.63486 9.19828H0.703125C0.314812 9.19828 0 9.51309 0 9.90141V13.9632C0 14.3515 0.314812 14.6663 0.703125 14.6663H1.63491C1.80741 15.2049 2.03067 15.7259 2.30264 16.2241L1.42195 17.0971C1.28925 17.2287 1.2143 17.4076 1.21383 17.5945C1.21331 17.7814 1.28719 17.9608 1.41919 18.0931L4.2847 20.9652C4.42209 21.1028 4.60219 21.1717 4.78247 21.1717C4.96139 21.1717 5.14045 21.1037 5.27756 20.9678L6.23236 20.0212C6.71208 20.2637 7.21186 20.4638 7.72669 20.62V23.1615C7.72669 23.5498 8.0415 23.8646 8.42981 23.8646H23.2969C23.6852 23.8646 24 23.5498 24 23.1615V0.703125C24 0.314813 23.6852 0 23.2969 0ZM7.72664 16.0925C7.21331 15.7486 6.76594 15.3087 6.40617 14.7897C5.82408 13.9498 5.51644 12.9618 5.51644 11.9324C5.51644 10.9029 5.82408 9.91491 6.40617 9.07505C6.76594 8.55605 7.21331 8.11608 7.72664 7.77225V16.0925ZM7.72664 6.15736C6.73538 6.63291 5.88577 7.35731 5.25042 8.274C4.50445 9.3502 4.11019 10.6153 4.11019 11.9324C4.11019 13.2495 4.50445 14.5145 5.25042 15.5907C5.88581 16.5074 6.73538 17.2318 7.72664 17.7074V19.1385C7.28869 18.9792 6.86555 18.7811 6.46167 18.5463C6.18689 18.3865 5.83898 18.431 5.61314 18.6548L4.78514 19.4758L2.91295 17.5993L3.6803 16.8387C3.91434 16.6067 3.95587 16.2432 3.78014 15.9644C3.35484 15.2896 3.04059 14.5582 2.84616 13.7906C2.76708 13.4786 2.48634 13.2601 2.16455 13.2601H1.40625V10.6046H2.16455C2.48634 10.6046 2.76708 10.3861 2.84616 10.0741C3.04055 9.30652 3.35484 8.57512 3.78014 7.90031C3.95587 7.6215 3.91434 7.25803 3.6803 7.02605L2.91295 6.26541L4.78514 4.38891L5.61314 5.20992C5.83889 5.43375 6.18675 5.47828 6.46167 5.31844C6.86555 5.08359 7.28873 4.88559 7.72664 4.72617V6.15736ZM22.5938 22.4585H9.13289V1.40625H22.5938V22.4585Z" fill="#001063"/>
</svg>
