<svg width="10" height="4" viewBox="0 0 10 4" fill="none" xmlns="http://www.w3.org/2000/svg">
<path d="M0.738253 2.68764H2.16313V3.16046C2.16313 3.56818 2.49367 3.89872 2.90139 3.89872C3.3091 3.89872 3.63964 3.56818 3.63964 3.16046V2.68764H9.26168C9.6694 2.68764 9.99994 2.3571 9.99994 1.94938C9.99994 1.54167 9.6694 1.21113 9.26168 1.21113H3.63964V0.738253C3.63964 0.330541 3.3091 0 2.90139 0C2.49367 0 2.16313 0.330541 2.16313 0.738253V1.21113H0.738253C0.330541 1.21113 0 1.54167 0 1.94938C0 2.3571 0.330541 2.68764 0.738253 2.68764Z" fill="#001063"/>
</svg>
