<svg width="10" height="4" viewBox="0 0 10 4" fill="none" xmlns="http://www.w3.org/2000/svg">
<path d="M0.738253 2.54796H2.16313V3.16056C2.16313 3.56827 2.49367 3.89881 2.90139 3.89881C3.3091 3.89881 3.63964 3.56827 3.63964 3.16056V2.54796H9.26168C9.6694 2.54796 9.99994 2.21742 9.99994 1.8097C9.99994 1.40199 9.6694 1.07145 9.26168 1.07145H3.63964V0.738253C3.63964 0.330541 3.3091 0 2.90139 0C2.49367 0 2.16313 0.330541 2.16313 0.738253V1.07145H0.738253C0.330541 1.07145 0 1.40199 0 1.8097C0 2.21742 0.330541 2.54796 0.738253 2.54796Z" fill="#001063"/>
</svg>
