<svg width="10" height="4" viewBox="0 0 10 4" fill="none" xmlns="http://www.w3.org/2000/svg">
<path d="M0.738253 2.68768H6.36025V3.16056C6.36025 3.56827 6.69079 3.89881 7.0985 3.89881C7.50621 3.89881 7.83676 3.56827 7.83676 3.16056V2.68768H9.26168C9.6694 2.68768 9.99994 2.35714 9.99994 1.94943C9.99994 1.54172 9.6694 1.21118 9.26168 1.21118H7.83676V0.738253C7.83676 0.330541 7.50621 0 7.0985 0C6.69079 0 6.36025 0.330541 6.36025 0.738253V1.21113H0.738253C0.330541 1.21113 0 1.54167 0 1.94938C0 2.3571 0.330541 2.68768 0.738253 2.68768Z" fill="#001063"/>
</svg>
