<svg width="24" height="21" viewBox="0 0 24 21" fill="none" xmlns="http://www.w3.org/2000/svg">
<path d="M9.96469 14C10.2549 14.8147 11.0365 15.4 11.9531 15.4C13.1162 15.4 14.0625 14.4579 14.0625 13.3C14.0625 12.1421 13.1162 11.2 11.9531 11.2C11.0365 11.2 10.2549 11.7853 9.96469 12.6H8.4375V2.8H9.96469C10.2549 3.61471 11.0365 4.2 11.9531 4.2C13.1162 4.2 14.0625 3.25794 14.0625 2.1C14.0625 0.94206 13.1162 0 11.9531 0C11.0365 0 10.2549 0.585293 9.96469 1.4H8.4375V0.7C8.4375 0.313413 8.12269 0 7.73438 0C5.9565 0 4.4827 1.32048 4.25058 3.02811C2.57334 3.60332 1.40625 5.19316 1.40625 7C1.40625 7.44091 1.47333 7.8701 1.60613 8.28184C0.619781 9.17854 0 10.4686 0 11.9C0 13.8295 1.11792 15.5446 2.83748 16.3409C2.82089 16.493 2.8125 16.6463 2.8125 16.8C2.8125 19.1159 4.70503 21 7.03125 21C7.3148 21 7.59844 20.9717 7.87425 20.916C8.20195 20.8498 8.4375 20.5629 8.4375 20.23V14H9.96469ZM11.9531 12.6C12.3408 12.6 12.6563 12.914 12.6563 13.3C12.6563 13.686 12.3408 14 11.9531 14C11.5654 14 11.25 13.686 11.25 13.3C11.25 12.914 11.5654 12.6 11.9531 12.6ZM11.9531 1.4C12.3408 1.4 12.6563 1.71402 12.6563 2.1C12.6563 2.48598 12.3408 2.8 11.9531 2.8C11.5654 2.8 11.25 2.48598 11.25 2.1C11.25 1.71402 11.5654 1.4 11.9531 1.4ZM4.21875 16.8C4.21875 16.5555 4.2503 16.3132 4.3125 16.0798C4.4085 15.7195 4.20403 15.3475 3.84745 15.2337C2.3873 14.7678 1.40625 13.4281 1.40625 11.9C1.40625 9.9701 2.98336 8.4 4.92188 8.4C5.31019 8.4 5.625 8.08659 5.625 7.7C5.625 7.31341 5.31019 7 4.92188 7C4.18195 7 3.47948 7.16347 2.8492 7.45593C2.82478 7.30655 2.8125 7.15442 2.8125 7C2.8125 5.67257 3.75652 4.52097 5.05922 4.25651C5.06011 4.25633 5.07445 4.25348 5.07445 4.25348C5.45264 4.17751 5.69831 3.81248 5.62599 3.43593C5.6527 2.55103 6.23198 1.80203 7.03125 1.51993V11.2C7.03125 11.972 6.40041 12.6 5.625 12.6C5.23669 12.6 4.92188 12.9134 4.92188 13.3C4.92188 13.6866 5.23669 14 5.625 14C6.13711 14 6.6172 13.8624 7.03125 13.6233V19.6C5.48044 19.6 4.21875 18.3439 4.21875 16.8Z" fill="#014461"/>
<path d="M24 11.9C24 10.4686 23.3802 9.17854 22.3939 8.28184C22.5267 7.8701 22.5938 7.44091 22.5938 7C22.5938 5.19316 21.4267 3.60332 19.7494 3.02811C19.5173 1.32048 18.0435 0 16.2656 0C15.8773 0 15.5625 0.313413 15.5625 0.7V7H14.0353C13.7451 6.18529 12.9635 5.6 12.0469 5.6C10.8838 5.6 9.9375 6.54206 9.9375 7.7C9.9375 8.85794 10.8838 9.8 12.0469 9.8C12.9635 9.8 13.7451 9.21471 14.0353 8.4H15.5625V18.2H14.0353C13.7451 17.3853 12.9635 16.8 12.0469 16.8C10.8838 16.8 9.9375 17.7421 9.9375 18.9C9.9375 20.0579 10.8838 21 12.0469 21C12.9635 21 13.7451 20.4147 14.0353 19.6H15.5625V20.23C15.5625 20.5629 15.798 20.8498 16.1257 20.916C16.4016 20.9717 16.6853 21 16.9688 21C19.295 21 21.1875 19.1159 21.1875 16.8C21.1875 16.6463 21.1791 16.493 21.1625 16.3409C22.8821 15.5446 24 13.8295 24 11.9ZM12.0469 8.4C11.6592 8.4 11.3438 8.08598 11.3438 7.7C11.3438 7.31402 11.6592 7 12.0469 7C12.4346 7 12.75 7.31402 12.75 7.7C12.75 8.08598 12.4346 8.4 12.0469 8.4ZM12.0469 19.6C11.6592 19.6 11.3438 19.286 11.3438 18.9C11.3438 18.514 11.6592 18.2 12.0469 18.2C12.4346 18.2 12.75 18.514 12.75 18.9C12.75 19.286 12.4346 19.6 12.0469 19.6ZM20.1525 15.2337C19.796 15.3475 19.5915 15.7195 19.6875 16.0798C19.7497 16.3132 19.7812 16.5555 19.7812 16.8C19.7812 18.3439 18.5196 19.6 16.9688 19.6V13.6233C17.3828 13.8624 17.8629 14 18.375 14C18.7633 14 19.0781 13.6866 19.0781 13.3C19.0781 12.9134 18.7633 12.6 18.375 12.6C17.5996 12.6 16.9688 11.972 16.9688 11.2V1.51993C17.7681 1.80203 18.3473 2.55103 18.374 3.43593C18.3017 3.81243 18.5473 4.17746 18.9255 4.25348C18.9255 4.25348 18.9399 4.25637 18.9408 4.25651C20.2434 4.52107 21.1875 5.67266 21.1875 7C21.1875 7.15442 21.1752 7.30655 21.1508 7.45593C20.5206 7.16347 19.818 7 19.0781 7C18.6898 7 18.375 7.31341 18.375 7.7C18.375 8.08659 18.6898 8.4 19.0781 8.4C21.0166 8.4 22.5938 9.9701 22.5938 11.9C22.5938 13.4281 21.6127 14.7678 20.1525 15.2337Z" fill="#014461"/>
</svg>
