<svg width="24" height="24" viewBox="0 0 24 24" fill="none" xmlns="http://www.w3.org/2000/svg">
<path d="M2.7764 22.1543C2.32688 21.4801 1.52652 21.0727 0.688626 21.089C0.300441 21.097 -0.00772595 21.4182 0.000147574 21.8064C0.00802114 22.1898 0.321132 22.4952 0.702908 22.4952C0.707669 22.4952 0.712613 22.4951 0.717557 22.4951C0.990568 22.4892 1.38425 22.6013 1.60635 22.9343C2.05112 23.6016 2.79544 24 3.59763 24C4.40659 24 5.14891 23.5941 5.58873 22.9343C5.77513 22.6551 6.07432 22.4949 6.41014 22.4949C6.74577 22.4949 7.04515 22.6551 7.23137 22.9343C7.67613 23.6016 8.42046 24 9.22265 24C10.0245 24 10.769 23.6016 11.2137 22.9343C11.4001 22.6551 11.6993 22.4949 12.0352 22.4949C12.3708 22.4949 12.6702 22.6551 12.8564 22.9343C13.3012 23.6016 14.0455 24 14.8477 24C15.6495 24 16.394 23.6016 16.8388 22.9343C17.0252 22.6551 17.3244 22.4949 17.6602 22.4949C17.9958 22.4949 18.2952 22.6551 18.4814 22.9343C18.9177 23.5889 19.6601 24 20.4727 24C21.2745 24 22.019 23.6016 22.4638 22.9343C22.6372 22.6745 22.9697 22.502 23.3112 22.4951C23.6996 22.487 24.0077 22.1658 23.9999 21.7776C23.992 21.3942 23.6787 21.0888 23.2971 21.0888C23.2921 21.0888 23.2874 21.089 23.2824 21.089C22.483 21.1055 21.7209 21.5136 21.2937 22.1543C21.1075 22.4335 20.8083 22.5938 20.4725 22.5938C20.4278 22.5938 20.3837 22.5906 20.3403 22.585L22.5194 15.0068C22.6174 14.6662 22.4464 14.3058 22.1206 14.1661L19.7344 13.1435V7.78125C19.7344 7.39288 19.4195 7.07813 19.0313 7.07813H16.9219V3.51562C16.9219 3.12726 16.6069 2.8125 16.2188 2.8125H14.1094V0.703125C14.1094 0.314758 13.7944 0 13.4063 0H10.5937C10.2054 0 9.89062 0.314758 9.89062 0.703125V2.8125H7.78124C7.39287 2.8125 7.07811 3.12726 7.07811 3.51562V7.07813H4.96873C4.58036 7.07813 4.2656 7.39288 4.2656 7.78125V13.1435L1.87918 14.1663C1.55344 14.3058 1.38242 14.6662 1.48038 15.0068L3.66135 22.5917C3.6403 22.593 3.61906 22.5938 3.59763 22.5938C3.26182 22.5938 2.96262 22.4335 2.7764 22.1543ZM20.9965 15.2144L19.1565 21.6136C18.7378 21.2778 18.2126 21.0886 17.6602 21.0886C16.8582 21.0886 16.1137 21.4871 15.6689 22.1543C15.4827 22.4335 15.1833 22.5938 14.8477 22.5938C14.5118 22.5938 14.2127 22.4337 14.0263 22.1543C13.7087 21.6779 13.238 21.3395 12.7031 21.1844V11.66C13.7071 12.0903 20.6703 15.0745 20.9965 15.2144ZM11.2969 1.40625H12.7031V2.8125H11.2969V1.40625ZM8.48436 4.21875H15.5156V7.07813H8.48436V4.21875ZM5.67186 8.48438H18.3281V12.5409L12.277 9.94757C12.1038 9.87323 11.9031 9.87012 11.723 9.94757L5.67186 12.5409V8.48438ZM3.00327 15.2144C3.32975 15.0745 10.2929 12.0903 11.2969 11.66V21.2051C10.791 21.3688 10.3475 21.6987 10.0439 22.1543C9.85766 22.4335 9.55828 22.5938 9.22265 22.5938C8.88683 22.5938 8.58764 22.4335 8.40123 22.1543C7.95647 21.4869 7.21196 21.0886 6.41014 21.0886C5.83207 21.0886 5.28477 21.2963 4.85722 21.6616L3.00327 15.2144Z" fill="#3801A7"/>
<path d="M15.5156 14.8125C15.5156 15.2009 15.2009 15.5156 14.8125 15.5156C14.4241 15.5156 14.1094 15.2009 14.1094 14.8125C14.1094 14.4241 14.4241 14.1094 14.8125 14.1094C15.2009 14.1094 15.5156 14.4241 15.5156 14.8125Z" fill="#3801A7"/>
<path d="M9.89062 14.8125C9.89062 15.2009 9.57586 15.5156 9.18749 15.5156C8.79912 15.5156 8.48436 15.2009 8.48436 14.8125C8.48436 14.4241 8.79912 14.1094 9.18749 14.1094C9.57586 14.1094 9.89062 14.4241 9.89062 14.8125Z" fill="#3801A7"/>
</svg>
